<svg width="12" height="15" viewBox="0 0 12 15" fill="none" xmlns="http://www.w3.org/2000/svg">
<path opacity="0.506069" fill-rule="evenodd" clip-rule="evenodd" d="M10 6L9.25582 12.9457C9.19151 13.5459 8.70229 14 8.11995 14H3.88005C3.29771 14 2.80849 13.5459 2.74418 12.9457L2 6H10Z" stroke="#3A8DDE"/>
<path opacity="0.506069" fill-rule="evenodd" clip-rule="evenodd" d="M7.41115 1C7.57333 1 7.72741 1.09567 7.83296 1.26191L8.33371 2.05059C8.43926 2.21683 8.59334 2.3125 8.75552 2.3125H10.5556C10.801 2.3125 11 2.58113 11 2.9125V3.4C11 3.73137 10.801 4 10.5556 4H1.44444C1.19898 4 1 3.73137 1 3.4V2.9125C1 2.58113 1.19898 2.3125 1.44444 2.3125H3.24448C3.40666 2.3125 3.56074 2.21683 3.66629 2.05059L4.16704 1.26191C4.27259 1.09567 4.42667 1 4.58885 1H7.41115Z" stroke="#3A8DDE"/>
</svg>
