<svg width="17" height="14" viewBox="0 0 17 14" fill="none" xmlns="http://www.w3.org/2000/svg">
<path d="M1.09164 8.25998C0.798919 7.88106 0.457696 7.54689 0.146531 7.18474C0.0987121 7.12882 0.0491853 7.07463 0 7.0194C0.036889 6.96208 0.0867574 6.98724 0.12672 6.98724C0.599104 6.9855 1.07149 6.97885 1.54387 6.99004C1.69689 6.99389 1.72832 6.9467 1.73515 6.79708C1.84889 4.24042 2.97673 2.2801 5.11185 0.96192C7.69237 -0.631363 11.0838 -0.204204 13.2548 1.93823C13.3504 2.03262 13.3432 2.07806 13.2548 2.16615C12.8116 2.60892 12.3731 3.05752 11.939 3.51194C11.8502 3.60458 11.8024 3.61681 11.6999 3.51928C9.92074 1.83337 7.24048 1.80645 5.44283 3.4679C4.47518 4.36207 3.9741 5.49254 3.91023 6.8261C3.9034 6.96347 3.94678 6.99039 4.07111 6.98864C4.60019 6.982 5.12996 6.98585 5.65562 6.98585C5.68329 7.05576 5.62796 7.07603 5.60097 7.10609C4.71518 8.09161 3.82939 9.07725 2.9436 10.063C2.84865 10.1679 2.80424 10.1455 2.72295 10.0546C2.26628 9.54356 1.80414 9.0381 1.34371 8.53054C1.25493 8.44513 1.17077 8.35481 1.09164 8.25998Z" fill="white"/>
<path d="M11.302 7.00963C11.5893 6.68838 11.8441 6.40175 12.1009 6.11686C12.749 5.3977 13.3971 4.67854 14.0451 3.95939C14.1155 3.88074 14.1565 3.83809 14.2501 3.94296C15.1579 4.94759 16.0688 5.94965 16.9826 6.94915C16.9894 6.95863 16.9953 6.96882 17 6.97957C16.9713 7.03584 16.9201 7.00823 16.8801 7.00823C16.4077 7.01033 15.9353 7.01487 15.463 7.00823C15.3219 7.00613 15.272 7.0348 15.2672 7.19629C15.1853 10.2098 13.2831 12.8203 10.4648 13.6729C7.95777 14.4311 5.71369 13.861 3.76745 12.0695C3.65986 11.9705 3.66498 11.9202 3.76745 11.8192C4.2042 11.385 4.63469 10.9444 5.05891 10.4972C5.15728 10.3923 5.20715 10.379 5.3226 10.4874C7.95264 12.9525 12.1471 11.635 12.9788 8.08696C13.0495 7.78565 13.0765 7.47873 13.1007 7.17077C13.1116 7.03305 13.0628 7.00578 12.9388 7.00718C12.4097 7.01347 11.881 7.00963 11.302 7.00963Z" fill="white"/>
</svg>
