<svg width="12" height="12" viewBox="0 0 12 12" fill="none" xmlns="http://www.w3.org/2000/svg">
<path d="M5.92519 0.00377772L6 0C6.37885 0 6.69046 0.287927 6.72793 0.656895L6.73171 0.731707V5.26829H11.2683C11.6471 5.26829 11.9588 5.55622 11.9962 5.92519L12 6C12 6.37885 11.7121 6.69046 11.3431 6.72793L11.2683 6.73171H6.73171V11.2683C6.73171 11.6471 6.44378 11.9588 6.07481 11.9962L6 12C5.62115 12 5.30954 11.7121 5.27207 11.3431L5.26829 11.2683V6.73171H0.731707C0.352853 6.73171 0.0412485 6.44378 0.00377772 6.07481L0 6C0 5.62115 0.287927 5.30954 0.656895 5.27207L0.731707 5.26829H5.26829V0.731707C5.26829 0.352853 5.55622 0.0412485 5.92519 0.00377772Z" fill="white"/>
</svg>
