<svg width="28" height="28" viewBox="0 0 28 28" fill="none" xmlns="http://www.w3.org/2000/svg">
<path d="M5.99605 2.52676C6.21224 2.6219 6.42059 2.73387 6.61918 2.86162C7.13046 3.24433 7.60979 3.65893 8.12108 4.02569C8.2248 4.06911 8.33614 4.09147 8.44862 4.09147C8.56109 4.09147 8.67244 4.06911 8.77616 4.02569C9.43672 3.78836 10.0823 3.51146 10.7095 3.19649C10.93 3.10652 11.1074 2.9352 11.2048 2.71811C11.3161 2.09528 11.396 1.46728 11.4444 0.836467C11.4465 0.725475 11.4705 0.61598 11.515 0.514234C11.5594 0.412489 11.6236 0.320488 11.7037 0.243486C11.7838 0.166484 11.8784 0.10599 11.9819 0.0654593C12.0855 0.0249287 12.196 0.00515561 12.3072 0.00726954H15.7104C15.8328 -0.00869506 15.9571 0.0017062 16.0751 0.0377718C16.193 0.0738374 16.3018 0.134729 16.3942 0.216338C16.4866 0.297948 16.5603 0.398379 16.6105 0.510856C16.6607 0.623334 16.6861 0.745242 16.6851 0.86836C16.6851 1.47431 16.8449 2.08026 16.8928 2.70216C16.8859 2.84989 16.9319 2.99525 17.0227 3.11215C17.1135 3.22905 17.243 3.30983 17.3881 3.34001C18.0272 3.56325 18.6344 3.86623 19.2735 4.08947C19.4783 4.17279 19.7077 4.17279 19.9126 4.08947C20.4398 3.73866 20.9192 3.32406 21.4145 2.92541C21.4961 2.84344 21.5932 2.7784 21.7002 2.73402C21.8071 2.68963 21.9218 2.66678 22.0376 2.66678C22.1534 2.66678 22.2681 2.68963 22.375 2.73402C22.482 2.7784 22.579 2.84344 22.6607 2.92541L22.7566 3.03703L25.0094 5.28543C25.2015 5.41504 25.3344 5.61513 25.3793 5.84213C25.4242 6.06912 25.3774 6.30463 25.2491 6.49734L25.1053 6.67274C24.7218 7.18302 24.3064 7.6614 23.9389 8.18762C23.8976 8.28331 23.8763 8.38641 23.8763 8.4906C23.8763 8.5948 23.8976 8.69789 23.9389 8.79358C24.1897 9.30927 24.4032 9.84216 24.578 10.3882C24.6063 10.6733 24.7466 10.9357 24.9681 11.118C25.1897 11.3002 25.4745 11.3876 25.7604 11.3609C26.2261 11.3906 26.6901 11.4438 27.1504 11.5204C27.375 11.5204 27.5904 11.6094 27.7492 11.7679C27.908 11.9264 27.9972 12.1414 27.9972 12.3655V15.762C28.0152 15.9855 27.9451 16.2071 27.8019 16.3798C27.6587 16.5526 27.4536 16.6627 27.2303 16.6869C26.4969 16.6672 25.7661 16.7807 25.0733 17.0218C24.5141 17.3566 24.4981 18.3293 24.1147 18.9512C24.037 19.0475 23.9791 19.1582 23.9442 19.2768C23.9094 19.3955 23.8983 19.5198 23.9117 19.6428C23.9251 19.7657 23.9626 19.8848 24.0221 19.9932C24.0816 20.1017 24.1619 20.1973 24.2585 20.2748C24.6133 20.6693 24.944 21.0846 25.2491 21.5186C25.3273 21.5957 25.3895 21.6876 25.4319 21.7889C25.4743 21.8901 25.4961 21.9988 25.4961 22.1086C25.4961 22.2183 25.4743 22.327 25.4319 22.4283C25.3895 22.5296 25.3273 22.6215 25.2491 22.6986C24.4502 23.5118 23.6513 24.2932 22.8205 25.1224C22.7514 25.2042 22.6667 25.2716 22.5714 25.3207C22.4761 25.3699 22.3721 25.3997 22.2652 25.4086C22.1583 25.4175 22.0507 25.4052 21.9486 25.3725C21.8465 25.3398 21.7519 25.2873 21.6701 25.2181C21.1748 24.8194 20.6635 24.4527 20.1682 24.0381C20.121 23.955 20.0549 23.8843 19.9751 23.8317C19.8954 23.779 19.8043 23.7459 19.7093 23.735C19.6143 23.7241 19.5181 23.7358 19.4285 23.7691C19.3388 23.8023 19.2584 23.8563 19.1936 23.9264C18.5864 24.2294 17.9313 24.4367 17.3402 24.7237C17.2373 24.7751 17.146 24.8468 17.0718 24.9346C16.9977 25.0223 16.9422 25.1242 16.9088 25.234C16.7969 25.84 16.749 26.4459 16.6691 27.0519C16.5892 27.6578 16.3336 27.9927 15.6465 27.9927H12.451C12.3273 28.0089 12.2016 27.9981 12.0825 27.9611C11.9634 27.9241 11.8537 27.8618 11.7611 27.7784C11.6685 27.6951 11.595 27.5926 11.5459 27.4782C11.4967 27.3638 11.473 27.2401 11.4764 27.1157C11.4764 26.5097 11.3006 25.9038 11.2687 25.2819C11.275 25.136 11.2284 24.9928 11.1374 24.8786C11.0464 24.7643 10.9171 24.6867 10.7734 24.66C10.2971 24.5525 9.8394 24.3752 9.41526 24.1337C9.29582 24.0308 9.15718 23.9524 9.0073 23.9031C8.85742 23.8538 8.69926 23.8345 8.54189 23.8463C8.38453 23.8582 8.23106 23.901 8.09029 23.9722C7.94953 24.0434 7.82425 24.1416 7.72164 24.2613V24.357C7.39706 24.6593 7.04987 24.9365 6.68309 25.1862C6.53376 25.3323 6.33298 25.4141 6.12387 25.4141C5.91476 25.4141 5.71399 25.3323 5.56466 25.1862L3.00824 22.6029C2.92998 22.5258 2.86784 22.4339 2.82543 22.3326C2.78302 22.2313 2.76119 22.1227 2.76119 22.0129C2.76119 21.9031 2.78302 21.7945 2.82543 21.6932C2.86784 21.5919 2.92998 21.5 3.00824 21.4229C3.40768 20.9286 3.8231 20.4342 4.1746 19.908C4.22118 19.7969 4.24517 19.6777 4.24517 19.5572C4.24517 19.4368 4.22118 19.3175 4.1746 19.2064C3.95092 18.5685 3.64734 17.9626 3.42366 17.3247C3.39387 17.1827 3.31528 17.0556 3.20149 16.9653C3.08769 16.8751 2.94586 16.8273 2.80053 16.8304C2.20609 16.7928 1.61407 16.7236 1.02701 16.6231C0.885095 16.6474 0.739385 16.6364 0.602694 16.5913C0.466004 16.5461 0.342521 16.4682 0.243107 16.3642C0.143692 16.2603 0.0713903 16.1335 0.0325605 15.9952C-0.00626926 15.8568 -0.0104377 15.711 0.0204217 15.5707V12.2698C0.0071101 12.1566 0.0164475 12.0419 0.0478926 11.9324C0.0793377 11.8228 0.132265 11.7205 0.203605 11.6315C0.274945 11.5425 0.363278 11.4686 0.463483 11.4139C0.563688 11.3592 0.673771 11.3249 0.787348 11.3131H0.899191C1.47439 11.3131 2.08154 11.1536 2.67271 11.1058C2.82911 11.1125 2.98278 11.0632 3.10588 10.9667C3.22898 10.8701 3.31337 10.7328 3.34377 10.5795C3.57538 9.9591 3.8531 9.35679 4.1746 8.77763C4.23161 8.72129 4.27686 8.65423 4.30774 8.58033C4.33862 8.50643 4.35452 8.42715 4.35452 8.34709C4.35452 8.26702 4.33862 8.18774 4.30774 8.11384C4.27686 8.03994 4.23161 7.97288 4.1746 7.91654C3.66332 7.42221 3.21595 6.91194 2.89639 6.38571C2.7432 6.23057 2.65732 6.0215 2.65732 5.80368C2.65732 5.58586 2.7432 5.37679 2.89639 5.22165L5.32499 2.82973C5.53515 2.70121 5.76058 2.59943 5.99605 2.52676ZM7.06655 13.8963C7.06341 15.2676 7.46756 16.609 8.22793 17.7511C8.98831 18.8932 10.0708 19.7847 11.3387 20.3131C12.6065 20.8415 14.0028 20.983 15.3512 20.7197C16.6996 20.4564 17.9396 19.8002 18.9144 18.834C19.8893 17.8677 20.5553 16.6347 20.8284 15.2908C21.1015 13.947 20.9693 12.5525 20.4487 11.2835C19.928 10.0145 19.0421 8.92806 17.903 8.16134C16.7639 7.39461 15.4227 6.98203 14.0488 6.97572C12.2124 6.96723 10.4477 7.68606 9.14173 8.97451C7.83576 10.263 7.09521 12.0158 7.08253 13.8485L7.06655 13.8963Z" fill="#3A8DDE"/>
</svg>
