<svg width="31" height="30" viewBox="0 0 31 30" fill="none" xmlns="http://www.w3.org/2000/svg">
<g clip-path="url(#clip0_632_9044)">
<path d="M25.8333 12.3222H14.2083C12.7816 12.3222 11.625 13.4498 11.625 14.8407V26.1739C11.625 27.5648 12.7816 28.6924 14.2083 28.6924H25.8333C27.2601 28.6924 28.4167 27.5648 28.4167 26.1739V14.8407C28.4167 13.4498 27.2601 12.3222 25.8333 12.3222Z" stroke="#8589A0" stroke-width="3" stroke-linecap="round" stroke-linejoin="round"/>
<path d="M6.45801 19.8777H5.16634C4.4812 19.8777 3.82412 19.6123 3.33965 19.14C2.85518 18.6677 2.58301 18.0271 2.58301 17.3592V6.02599C2.58301 5.35805 2.85518 4.71746 3.33965 4.24515C3.82412 3.77285 4.4812 3.50751 5.16634 3.50751H16.7913C17.4765 3.50751 18.1336 3.77285 18.618 4.24515C19.1025 4.71746 19.3747 5.35805 19.3747 6.02599V7.28523" stroke="#8589A0" stroke-width="3" stroke-linecap="square" stroke-linejoin="round"/>
</g>
<defs>
<clipPath id="clip0_632_9044">
<rect width="31" height="30" fill="white"/>
</clipPath>
</defs>
</svg>
