<svg width="20" height="20" viewBox="0 0 20 20" fill="none" xmlns="http://www.w3.org/2000/svg">
<path d="M0.104556 13.7568H2.62857C2.63667 13.8685 2.65207 13.9795 2.65207 14.0904C2.65207 14.9756 2.65207 15.8608 2.65207 16.7467C2.65207 17.2624 2.88227 17.496 3.40263 17.496C7.81952 17.496 12.2361 17.496 16.6525 17.496C17.1631 17.496 17.4014 17.2741 17.4014 16.7928C17.4014 12.2614 17.4014 7.72999 17.4014 3.19856C17.4014 2.72042 17.1583 2.49541 16.6468 2.49541C12.2299 2.49541 7.8133 2.49541 3.39696 2.49541C2.89037 2.49541 2.65451 2.72354 2.65288 3.20872C2.65288 4.08063 2.65288 4.95332 2.65288 5.82523C2.65288 5.9518 2.65288 6.07836 2.65288 6.22446H0.0778079C0.0721342 6.10024 0.0607866 5.97601 0.059976 5.85101C0.059976 4.71815 0.059976 3.58556 0.059976 2.45322C0.0615971 1.03051 1.13232 0 2.61479 0C7.55853 0 12.5028 0 17.4476 0C18.9269 0 19.9992 1.03676 20 2.4626C20 7.47477 20 12.4872 20 17.4999C20 18.9843 18.9423 20 17.4063 20H2.69422C1.10233 19.9992 0.0615971 18.9914 0.0615971 17.4616C0.0615971 16.2637 0.0640288 15.0657 0.068892 13.8677C0.0763321 13.8296 0.0882985 13.7923 0.104556 13.7568Z" fill="#7D8797"/>
<path d="M8.09321 8.76441V4.86347L13.5068 10.0848L8.09564 15.199V11.2567H0V8.76441H8.09321Z" fill="#7D8797"/>
</svg>
