<svg width="30" height="25" viewBox="0 0 30 25" fill="none" xmlns="http://www.w3.org/2000/svg">
<path d="M1.92642 14.75C1.40986 14.0733 0.807699 13.4766 0.258584 12.8299C0.174198 12.73 0.0867976 12.6333 0 12.5346C0.0650982 12.4323 0.153101 12.4772 0.223624 12.4772C1.05724 12.4741 1.89086 12.4622 2.72448 12.4822C2.99452 12.4891 3.04997 12.4048 3.06202 12.1377C3.26274 7.57218 5.25306 4.07161 9.02092 1.71771C13.5748 -1.12743 19.5596 -0.36465 23.3907 3.46113C23.5595 3.62967 23.5469 3.71082 23.3907 3.86812C22.6088 4.65878 21.8348 5.45985 21.0689 6.27133C20.9122 6.43674 20.8278 6.45859 20.647 6.28444C17.5072 3.27387 12.7773 3.22581 9.60499 6.19268C7.89737 7.78941 7.01312 9.8081 6.90041 12.1895C6.88835 12.4348 6.9649 12.4828 7.18431 12.4797C8.11798 12.4679 9.05286 12.4747 9.98051 12.4747C10.0293 12.5996 9.93169 12.6358 9.88407 12.6895C8.32091 14.4493 6.75775 16.2094 5.19459 17.9696C5.02702 18.1569 4.94867 18.117 4.80521 17.9547C3.99932 17.0421 3.18378 16.1395 2.37126 15.2331C2.21457 15.0806 2.06607 14.9193 1.92642 14.75Z" fill="#3A8DDE"/>
<path d="M19.9447 12.5172C20.4517 11.9435 20.9013 11.4317 21.3546 10.923C22.4982 9.63875 23.6419 8.35454 24.7855 7.07034C24.9097 6.92989 24.982 6.85373 25.1472 7.041C26.7493 8.83498 28.3567 10.6244 29.9693 12.4092C29.9813 12.4261 29.9916 12.4443 30 12.4635C29.9494 12.564 29.859 12.5147 29.7884 12.5147C28.9548 12.5184 28.1212 12.5266 27.2876 12.5147C27.0386 12.5109 26.9506 12.5621 26.9422 12.8505C26.7975 18.2318 23.4408 22.8934 18.4674 24.4159C14.0431 25.7698 10.083 24.7517 6.64845 21.5526C6.45858 21.376 6.46762 21.2861 6.64845 21.1057C7.41918 20.3304 8.17886 19.5435 8.92749 18.7449C9.10108 18.5577 9.18908 18.534 9.39282 18.7275C14.0341 23.1294 21.436 20.7767 22.9037 14.441C23.0285 13.9029 23.0761 13.3549 23.1189 12.805C23.1382 12.559 23.052 12.5103 22.8332 12.5128C21.8995 12.5241 20.9664 12.5172 19.9447 12.5172Z" fill="#3A8DDE"/>
</svg>
