<svg width="26" height="24" viewBox="0 0 26 24" fill="none" xmlns="http://www.w3.org/2000/svg">
<path d="M25.8402 0.982179C25.9062 0.5764 25.4815 0.268765 25.1166 0.457973L1.04709 12.9355C0.655149 13.1386 0.699624 13.713 1.11817 13.8534L8.23333 16.2404L21.2333 5.21739L11.4833 17.3913L21.9691 21.1045C22.263 21.2086 22.5794 21.0212 22.6295 20.7135L25.8402 0.982179Z" fill="#0461CC"/>
<path d="M9.96667 18.6957L14.3 20L11.0201 23.7845C10.6563 24.2042 9.96667 23.947 9.96667 23.3916V18.6957Z" fill="#0461CC"/>
<path d="M25.8402 0.982179C25.9062 0.5764 25.4815 0.268765 25.1166 0.457973L1.04709 12.9355C0.655149 13.1386 0.699624 13.713 1.11817 13.8534L8.23333 16.2404L21.2333 5.21739L11.4833 17.3913L21.9691 21.1045C22.263 21.2086 22.5794 21.0212 22.6295 20.7135L25.8402 0.982179Z" stroke="black"/>
<path d="M9.96667 18.6957L14.3 20L11.0201 23.7845C10.6563 24.2042 9.96667 23.947 9.96667 23.3916V18.6957Z" stroke="black"/>
</svg>
