<svg width="27" height="24" viewBox="0 0 27 24" fill="none" xmlns="http://www.w3.org/2000/svg">
<path d="M0 4.60788C0.0902251 4.2244 0.147291 3.83479 0.276074 3.46665C1.02332 1.33604 2.88104 0.0153391 5.17522 0.00920349C9.0238 -0.00306783 12.8726 -0.00306783 16.7217 0.00920349C19.2419 0.0168731 21.26 1.62825 21.7867 4.03573C21.8579 4.36878 21.8936 4.70838 21.8931 5.04888C21.8985 7.77541 21.9193 10.5027 21.8784 13.2285C21.8461 15.3967 20.2336 17.3524 18.1144 17.864C17.6364 17.9753 17.1471 18.0319 16.6562 18.0327C14.3805 18.0496 12.1064 18.0427 9.82837 18.0327C9.7424 18.0293 9.65662 18.0434 9.57637 18.0743C9.49612 18.1052 9.42309 18.1521 9.36182 18.2122C8.17424 19.3053 6.98152 20.3929 5.78366 21.4748C5.12818 22.0692 4.21205 21.9457 3.85578 21.1995C3.76608 20.9826 3.72199 20.7498 3.72622 20.5153C3.71157 19.7031 3.71543 18.8902 3.72622 18.0772C3.72622 17.91 3.67224 17.8348 3.51338 17.7781C1.52457 17.0656 0.363985 15.6712 0.0431847 13.5882C0.0333744 13.5478 0.0188825 13.5087 0 13.4716V4.60788ZM5.35567 19.6257C5.43279 19.5666 5.46363 19.549 5.48908 19.526C6.63116 18.5021 7.77093 17.4751 8.91841 16.4581C9.01882 16.372 9.14533 16.3218 9.27777 16.3155C11.7115 16.307 14.1453 16.3155 16.5791 16.2986C16.9998 16.2908 17.4165 16.2151 17.8129 16.0747C19.1239 15.6145 20.1996 14.2117 20.1672 12.7369C20.1117 10.1952 20.1202 7.6504 20.1672 5.10794C20.195 3.48199 18.6057 1.67887 16.7194 1.67197C12.8883 1.65739 9.05722 1.66506 5.2292 1.67197C4.94868 1.6745 4.66951 1.71107 4.3979 1.78087C2.90803 2.15592 1.69885 3.62157 1.69885 5.06038C1.69191 7.67341 1.6842 10.2864 1.69885 12.8995C1.70888 14.4978 3.08693 16.1207 5.03564 16.2994C5.28164 16.3216 5.35182 16.3906 5.35027 16.6207C5.34256 17.5035 5.35027 18.3847 5.35027 19.2683C5.33794 19.3703 5.34796 19.4723 5.35567 19.6257Z" fill="#0461CC"/>
<path d="M22.8393 3.29178C24.4502 3.64305 25.6448 4.50664 26.4167 5.92781C26.8086 6.65304 27.0091 7.46524 26.9997 8.28851C26.9945 10.9105 26.9945 13.5324 26.9997 16.1544C26.9997 18.6601 25.263 20.7247 22.7807 21.1688C22.5493 21.2102 22.318 21.2317 22.0396 21.2677C22.0396 21.4349 22.0396 21.606 22.0396 21.777C22.0396 22.1352 22.0396 22.4933 22.0396 22.8507C22.0342 23.2894 21.9023 23.6721 21.4666 23.8577C21.004 24.0548 20.5351 24.0748 20.1241 23.7396C19.7647 23.4459 19.43 23.1261 19.0845 22.8116C18.5779 22.3514 18.0689 21.8959 17.5708 21.4311C17.5087 21.371 17.4348 21.3244 17.3537 21.2942C17.2726 21.264 17.1861 21.2508 17.0996 21.2555C16.0716 21.2555 15.0414 21.2869 14.015 21.2232C12.4025 21.1228 11.3013 20.2147 10.4769 18.8457C10.5795 18.8372 10.6443 18.8273 10.7083 18.8273C11.0507 18.8273 11.3946 18.8411 11.7362 18.8234C12.2691 18.7958 12.7649 18.8311 13.2184 19.1816C13.5083 19.4056 13.8831 19.4623 14.2671 19.4577C15.3468 19.4439 16.4264 19.4477 17.506 19.4638C17.6751 19.4701 17.8375 19.5309 17.9687 19.6372C18.7398 20.3037 19.4886 20.9878 20.2459 21.6665C20.3354 21.7432 20.4271 21.8245 20.5544 21.9342V19.4546C20.889 19.4546 21.2014 19.4546 21.5129 19.4546C21.9841 19.4485 22.4568 19.4945 22.9156 19.3089C24.3808 18.7145 25.3324 17.3631 25.3209 15.9282C25.3008 13.4639 25.3155 10.9989 25.3147 8.5347C25.3147 6.91335 24.4996 5.81814 23.066 5.14245C22.8817 5.05578 22.827 4.96988 22.8347 4.77968C22.8478 4.29112 22.8393 3.80334 22.8393 3.29178Z" fill="#0461CC"/>
<path d="M10.8663 12.9946C9.09963 12.9946 7.33291 12.9946 5.5662 12.9946C5.42457 13.0015 5.28435 12.9639 5.16544 12.8871C5.04653 12.8102 4.95497 12.6981 4.90377 12.5666C4.79196 12.3242 4.84748 12.088 5.01405 11.8809C5.16674 11.6984 5.36415 11.6386 5.59781 11.6386C6.90878 11.6424 8.21974 11.6386 9.52685 11.6386C11.7416 11.6386 13.9566 11.6386 16.1719 11.6386C16.6068 11.6386 16.9107 11.9001 16.9238 12.2775C16.929 12.3713 16.9145 12.4651 16.8811 12.553C16.8477 12.6409 16.7962 12.7209 16.7299 12.7879C16.6636 12.8548 16.584 12.9072 16.4961 12.9418C16.4083 12.9763 16.3141 12.9922 16.2197 12.9884C14.7802 12.9884 13.3387 12.9884 11.8951 12.9884L10.8663 12.9946Z" fill="#0461CC"/>
<path d="M10.891 6.65335H5.61787C5.14669 6.65335 4.8552 6.39336 4.85674 5.97843C4.85674 5.57655 5.15055 5.30888 5.60013 5.30888C9.12431 5.30888 12.6485 5.30888 16.1727 5.30888C16.549 5.30888 16.8343 5.50905 16.9122 5.81814C16.9433 5.95954 16.9289 6.10708 16.871 6.23989C16.8132 6.3727 16.7148 6.48407 16.5899 6.55825C16.4569 6.62172 16.3109 6.65324 16.1634 6.65029C14.406 6.65335 12.6469 6.65335 10.891 6.65335Z" fill="#0461CC"/>
<path d="M10.881 9.96354C9.10734 9.96354 7.33369 9.95971 5.56003 9.96354C5.42332 9.97197 5.28741 9.93749 5.17146 9.86497C5.05551 9.79245 4.96539 9.68555 4.9138 9.55936C4.85449 9.45115 4.83206 9.32673 4.84985 9.20477C4.86765 9.08281 4.92472 8.96988 5.01251 8.8829C5.14033 8.7582 5.30336 8.67526 5.47983 8.64514C5.78289 8.60756 6.09675 8.63287 6.40136 8.63287H16.1549C16.6176 8.63287 16.9137 8.87906 16.9261 9.27328C16.9353 9.67977 16.6462 9.96354 16.2081 9.96354C14.4859 9.96354 12.7636 9.96354 11.0414 9.96354H10.881Z" fill="#0461CC"/>
</svg>
