<svg width="210" height="85" viewBox="0 0 210 85" fill="none" xmlns="http://www.w3.org/2000/svg">
<g filter="url(#filter0_d_989_12223)">
<path d="M55.9582 77C55.1859 77 54.4393 76.9497 53.7184 76.8491C53.0105 76.7577 52.4376 76.6296 52 76.465L52.3668 75.203C53.4868 75.6145 54.761 75.8203 56.1899 75.8203C58.1979 75.8203 59.3435 75.3402 59.6267 74.38C59.6653 74.2428 59.6847 74.1239 59.6847 74.0233C59.6847 73.7855 59.5881 73.5844 59.395 73.4198C59.2019 73.2552 58.9251 73.1088 58.5648 72.9808C58.2172 72.8436 57.6701 72.6607 56.9236 72.4321C55.971 72.1486 55.2567 71.8239 54.7804 71.4582C54.317 71.0924 54.0853 70.6625 54.0853 70.1687C54.0853 69.995 54.1175 69.7938 54.1818 69.5652C54.4006 68.7878 54.9863 68.166 55.9388 67.6996C56.8914 67.2332 58.0885 67 59.5302 67C60.2639 67 60.9139 67.0412 61.4803 67.1235C62.0595 67.2058 62.6002 67.3384 63.1022 67.5212L62.7353 68.7284C61.7313 68.3718 60.6565 68.1934 59.5109 68.1934C58.5841 68.1934 57.8375 68.3123 57.2711 68.5501C56.7176 68.7878 56.3765 69.1262 56.2478 69.5652C56.2092 69.6841 56.1899 69.7938 56.1899 69.8944C56.1899 70.2236 56.3765 70.4934 56.7498 70.7037C57.136 70.9049 57.8181 71.1609 58.7965 71.4718C59.8649 71.8011 60.6372 72.1258 61.1134 72.4458C61.5897 72.7659 61.8279 73.1865 61.8279 73.7078C61.8279 73.909 61.7892 74.1331 61.712 74.38C61.4674 75.2213 60.8689 75.8706 59.9163 76.3278C58.9638 76.7759 57.6444 77 55.9582 77ZM66.3726 67.2058H75.2736L74.9261 68.3855H67.9945L67.087 71.417H72.2615L71.914 72.583H66.7394L65.8319 75.6282H72.7636L72.416 76.7942H63.5149L66.3726 67.2058ZM77.7112 67.2058H83.1365C84.3079 67.2058 85.222 67.4024 85.8787 67.7956C86.5347 68.1797 86.863 68.7147 86.863 69.4005C86.863 69.6292 86.8244 69.8669 86.747 70.1138C86.5284 70.8363 86.091 71.4398 85.4343 71.9245C84.7909 72.4092 83.9409 72.7338 82.8855 72.8985L84.7009 76.7942H82.6541L80.897 73.0082H77.9425L76.8231 76.7942H74.8535L77.7112 67.2058ZM81.418 71.8285C82.2808 71.8285 83.0078 71.6868 83.5998 71.4033C84.2052 71.1107 84.5912 70.6808 84.7586 70.1138C84.8226 69.9218 84.8549 69.7206 84.8549 69.5103C84.8549 69.0988 84.6686 68.8107 84.2952 68.6461C83.9345 68.4723 83.3748 68.3855 82.6155 68.3855H79.3333L78.2905 71.8285H81.418ZM88.4936 67.2058H90.5214L92.4712 74.8875L99.0166 67.2058H101.16L92.9155 76.7942H91.0234L88.4936 67.2058ZM103.687 67.2058H105.677L102.819 76.7942H100.83L103.687 67.2058ZM112.42 77C111.325 77 110.334 76.8445 109.446 76.5336C108.571 76.2135 107.876 75.7655 107.361 75.1893C106.859 74.604 106.608 73.9227 106.608 73.1454C106.608 72.7796 106.666 72.4001 106.782 72.0068C107.078 71.0009 107.625 70.123 108.423 69.3731C109.234 68.6141 110.238 68.0288 111.435 67.6173C112.632 67.2058 113.958 67 115.412 67C117.266 67 118.72 67.3338 119.776 68.0014L119.371 69.3457C118.457 68.6415 117.066 68.2895 115.2 68.2895C113.552 68.2895 112.15 68.6232 110.991 69.2908C109.845 69.9584 109.105 70.8638 108.77 72.0068C108.668 72.3269 108.616 72.6653 108.616 73.0219C108.616 73.8815 108.989 74.5492 109.736 75.0247C110.495 75.5002 111.576 75.738 112.979 75.738C113.932 75.738 114.807 75.6512 115.605 75.4774C116.416 75.2945 117.201 75.0064 117.961 74.6132L117.555 75.9712C116.191 76.6571 114.479 77 112.42 77ZM122.707 67.2058H131.608L131.26 68.3855H124.329L123.421 71.417H128.596L128.248 72.583H123.074L122.166 75.6282H129.098L128.75 76.7942H119.849L122.707 67.2058ZM134.856 77C134.084 77 133.337 76.9497 132.616 76.8491C131.909 76.7577 131.336 76.6296 130.898 76.465L131.265 75.203C132.385 75.6145 133.659 75.8203 135.088 75.8203C137.096 75.8203 138.241 75.3402 138.524 74.38C138.563 74.2428 138.582 74.1239 138.582 74.0233C138.582 73.7855 138.486 73.5844 138.293 73.4198C138.1 73.2552 137.823 73.1088 137.463 72.9808C137.115 72.8436 136.568 72.6607 135.822 72.4321C134.869 72.1486 134.155 71.8239 133.679 71.4582C133.214 71.0924 132.983 70.6625 132.983 70.1687C132.983 69.995 133.015 69.7938 133.079 69.5652C133.298 68.7878 133.884 68.166 134.837 67.6996C135.789 67.2332 136.986 67 138.428 67C139.161 67 139.812 67.0412 140.378 67.1235C140.957 67.2058 141.498 67.3384 142 67.5212L141.633 68.7284C140.629 68.3718 139.555 68.1934 138.408 68.1934C137.482 68.1934 136.735 68.3123 136.169 68.5501C135.616 68.7878 135.275 69.1262 135.146 69.5652C135.107 69.6841 135.088 69.7938 135.088 69.8944C135.088 70.2236 135.275 70.4934 135.648 70.7037C136.034 70.9049 136.716 71.1609 137.694 71.4718C138.763 71.8011 139.535 72.1258 140.012 72.4458C140.488 72.7659 140.726 73.1865 140.726 73.7078C140.726 73.909 140.687 74.1331 140.61 74.38C140.365 75.2213 139.767 75.8706 138.814 76.3278C137.861 76.7759 136.542 77 134.856 77Z" fill="#E6E6E6"/>
<path d="M50.3729 51.3827L45.4915 61H9.18099L13.7627 51.3827H50.3729ZM68.155 21.3096L11.9849 61H4L9.18099 52.174L63.8255 13H72.6877L68.155 21.3096ZM66.063 13L61.8789 22.8924H28.7008L32.8847 13H66.063ZM97.4166 51.3827L92.2675 61H54.3177L59.4383 51.3827H97.4166ZM89.7884 13L62.5085 61H49.3332L76.613 13H89.7884ZM102.697 32.7849L97.4166 41.4902H73.5965L77.903 32.7849H102.697ZM119.758 13L114.528 22.8924H79.661L81.5975 13H119.758ZM148 51.3827L143.467 61H100.715L104.55 51.3827H148ZM136.145 13L109.646 61H95.7297L123.245 13H136.145Z" fill="white"/>
<path fill-rule="evenodd" clip-rule="evenodd" d="M146.122 43C142.96 43 140.979 39.0909 142.55 35.9524L155.808 9.47244C158.783 3.53112 164.342 -0.0952054 170.326 0.00190258L201.937 0.514819C205.087 0.565931 207.021 4.48145 205.434 7.59437L192.143 33.6572C189.193 39.4425 183.779 43 177.924 43H146.122ZM159.61 35.1536C159.453 35.1536 159.353 34.9588 159.431 34.8019L167.771 18.0105C167.808 17.9368 167.876 17.8914 167.95 17.8914H170.271C170.429 17.8914 170.527 18.0861 170.45 18.243L162.11 35.0344C162.074 35.108 162.005 35.1536 161.931 35.1536H159.61ZM184.746 20.6376C184.813 20.6376 184.875 20.6009 184.914 20.5391L186.334 18.2636C186.432 18.1078 186.334 17.8914 186.167 17.8914H183.134L185.187 13.9313C185.268 13.7743 185.17 13.5758 185.01 13.5758H182.695C182.622 13.5758 182.555 13.6187 182.518 13.6905C182.292 14.1299 181.437 15.7872 180.349 17.8914H177.413C177.326 17.8914 177.249 17.9536 177.219 18.047L176.503 20.3225C176.455 20.4759 176.555 20.6376 176.697 20.6376H178.928C176.762 24.8216 174.368 29.4284 174.004 30.0534C173.318 31.2303 173.335 32.8946 173.661 33.5843C173.986 34.2739 174.5 34.5921 175.168 34.8243C175.775 35.0359 176.544 35.1536 177.236 35.1536H177.527C177.603 35.1536 177.673 35.1061 177.708 35.03L178.982 32.3323L178.773 32.3795L178.566 32.4264C178.393 32.4577 178.171 32.4734 177.902 32.4734C177.542 32.4734 177.205 32.4106 176.894 32.2852C176.616 32.1636 176.564 32.0318 176.441 31.7177C176.43 31.6877 176.417 31.6561 176.404 31.6227C176.259 31.2308 176.894 29.82 177.236 29.2687L181.711 20.6376H184.746ZM171.504 10.1648L169.888 13.5763C169.81 13.7332 169.909 13.928 170.067 13.928H172.388C172.462 13.928 172.53 13.8825 172.567 13.8089L174.183 10.3974C174.26 10.2405 174.161 10.0457 174.004 10.0457H171.683C171.609 10.0457 171.54 10.0911 171.504 10.1648Z" fill="url(#paint0_linear_989_12223)"/>
</g>
<defs>
<filter id="filter0_d_989_12223" x="0" y="0" width="210" height="85" filterUnits="userSpaceOnUse" color-interpolation-filters="sRGB">
<feFlood flood-opacity="0" result="BackgroundImageFix"/>
<feColorMatrix in="SourceAlpha" type="matrix" values="0 0 0 0 0 0 0 0 0 0 0 0 0 0 0 0 0 0 127 0" result="hardAlpha"/>
<feOffset dy="4"/>
<feGaussianBlur stdDeviation="2"/>
<feComposite in2="hardAlpha" operator="out"/>
<feColorMatrix type="matrix" values="0 0 0 0 0 0 0 0 0 0 0 0 0 0 0 0 0 0 0.25 0"/>
<feBlend mode="normal" in2="BackgroundImageFix" result="effect1_dropShadow_989_12223"/>
<feBlend mode="normal" in="SourceGraphic" in2="effect1_dropShadow_989_12223" result="shape"/>
</filter>
<linearGradient id="paint0_linear_989_12223" x1="199.5" y1="-0.999998" x2="147" y2="39.5" gradientUnits="userSpaceOnUse">
<stop stop-color="white"/>
<stop offset="1" stop-color="#8FA1DF"/>
</linearGradient>
</defs>
</svg>
