<svg width="20" height="19" viewBox="0 0 20 19" fill="none" xmlns="http://www.w3.org/2000/svg">
<path d="M19.8389 0.978219C19.9056 0.573247 19.4829 0.264841 19.1176 0.451939L1.06234 9.69937C0.667583 9.90156 0.71196 10.4795 1.13296 10.619L6.33333 12.3427L16.3333 3.96522L8.83333 13.2174L16.7716 15.9948C17.0648 16.0973 17.3796 15.9106 17.4301 15.6041L19.8389 0.978219Z" fill="white"/>
<path d="M7.66667 14.2087L11 15.2L8.71772 17.8018C8.35262 18.218 7.66667 17.9598 7.66667 17.4061V14.2087Z" fill="white"/>
<path d="M19.8389 0.978219C19.9056 0.573247 19.4829 0.264841 19.1176 0.451939L1.06234 9.69937C0.667583 9.90156 0.71196 10.4795 1.13296 10.619L6.33333 12.3427L16.3333 3.96522L8.83333 13.2174L16.7716 15.9948C17.0648 16.0973 17.3796 15.9106 17.4301 15.6041L19.8389 0.978219Z" stroke="black"/>
<path d="M7.66667 14.2087L11 15.2L8.71772 17.8018C8.35262 18.218 7.66667 17.9598 7.66667 17.4061V14.2087Z" stroke="black"/>
</svg>
