<svg width="216" height="36" viewBox="0 0 216 36" fill="none" xmlns="http://www.w3.org/2000/svg">
<path d="M137.951 15.4891C139.397 12.2708 140.781 9.22822 142.123 6.16824C142.365 5.61893 142.626 5.35932 143.272 5.40048C144.324 5.46696 145.383 5.41789 146.565 5.41789C146.435 5.72341 146.343 5.9577 146.24 6.18566C144.32 10.4361 142.418 14.6944 140.459 18.9258C140.173 19.5416 139.708 20.1843 139.151 20.5421C137.901 21.3431 136.425 20.7415 135.711 19.2187C134.424 16.4753 133.172 13.7145 131.902 10.9616C131.793 10.7242 131.675 10.4867 131.507 10.1416C130.998 11.1769 130.525 12.1252 130.065 13.0797C129.078 15.1202 128.1 17.1639 127.113 19.2044C126.731 19.9959 126.197 20.6196 125.269 20.7875C123.86 21.0407 123.065 20.6022 122.422 19.1443C121.542 17.1433 120.689 15.1297 119.821 13.1288C118.817 10.807 117.812 8.48526 116.806 6.16349C116.714 5.95137 116.638 5.73291 116.518 5.42264C117.857 5.42264 119.115 5.39889 120.372 5.44797C120.561 5.44797 120.812 5.76457 120.91 5.98936C122.151 8.8388 123.368 11.6993 124.593 14.5567C124.706 14.821 124.828 15.0822 125.003 15.4748C125.193 15.1091 125.337 14.8416 125.466 14.5788C126.721 11.9669 127.967 9.35487 129.232 6.7413C129.579 6.02577 129.973 5.32766 130.836 5.10445C132.25 4.74036 133.189 5.18044 133.843 6.58616C135.113 9.31054 136.342 12.0492 137.59 14.7815C137.68 14.9635 137.778 15.144 137.951 15.4891Z" fill="black"/>
<path d="M44.2834 14.4332C44.3564 15.1282 44.3278 15.7471 44.5119 16.2964C44.6763 16.67 44.982 16.9636 45.3624 17.1133C45.8131 17.2842 46.3447 17.2858 46.8414 17.2874C50.78 17.3001 54.7202 17.2874 58.6588 17.2874H59.7537V20.398C59.4792 20.4107 59.2221 20.4313 58.9603 20.4313C54.9154 20.4313 50.8673 20.4424 46.8255 20.4313C46.0328 20.4365 45.2412 20.373 44.4595 20.2413C41.7618 19.7537 40.5019 18.4858 40.2686 15.6775C40.1084 13.7064 40.1254 11.725 40.3194 9.75697C40.586 7.0215 41.9062 5.80891 44.6848 5.57462C46.4193 5.4274 48.176 5.42582 49.9104 5.4274C51.9733 5.4274 54.0363 5.39099 56.0865 5.57779C58.6747 5.81366 59.7712 7.11965 59.8125 9.69365C59.8363 11.1706 59.8125 12.6476 59.8125 14.1261C59.7994 14.2331 59.7782 14.3389 59.749 14.4427L44.2834 14.4332ZM44.3754 11.7421H55.6787C55.6787 11.3463 55.6787 10.9838 55.6787 10.6213C55.6787 8.78024 55.5089 8.60611 53.6332 8.59978C51.4386 8.59978 49.2455 8.59028 47.0509 8.59978C44.7277 8.61403 44.2754 9.0921 44.3341 11.4096C44.3357 11.4872 44.3532 11.5648 44.3754 11.7373V11.7421Z" fill="black"/>
<path d="M167.085 17.2937V20.3949C166.817 20.4107 166.588 20.4376 166.358 20.4376C162.232 20.4376 158.106 20.5041 153.98 20.4028C152.59 20.3479 151.216 20.081 149.907 19.6113C148.525 19.1364 147.769 17.8525 147.685 16.4705C147.546 14.0327 147.496 11.5632 147.715 9.13957C147.912 6.95975 149.363 5.81522 151.819 5.59677C153.604 5.43846 155.407 5.42738 157.202 5.4258C159.287 5.4258 161.382 5.40047 163.456 5.5841C165.961 5.80573 167.097 7.17662 167.115 9.67305C167.126 11.2244 167.115 12.7774 167.115 14.4221H151.599C151.66 15.1139 151.621 15.7344 151.798 16.2853C151.878 16.4722 151.994 16.6413 152.14 16.7827C152.286 16.9241 152.459 17.0349 152.649 17.1085C153.125 17.2826 153.684 17.2874 154.207 17.289C158.174 17.3016 162.142 17.289 166.109 17.289L167.085 17.2937ZM162.989 11.7231C162.989 11.2672 162.989 10.8777 162.989 10.4867C162.989 8.82771 162.784 8.60134 161.131 8.5871C158.778 8.5776 156.425 8.5776 154.072 8.5871C153.679 8.5871 153.228 8.56177 152.906 8.73432C152.481 8.96385 151.984 9.3137 151.825 9.72845C151.602 10.3126 151.667 11.0028 151.592 11.7088L162.989 11.7231Z" fill="black"/>
<path d="M115.524 17.2937V20.3775C115.299 20.3996 115.099 20.4376 114.897 20.4376C110.695 20.4376 106.487 20.4566 102.29 20.4218C101.366 20.4058 100.447 20.2944 99.5461 20.0894C97.6212 19.6683 96.2914 18.4399 96.1391 16.5022C95.933 14.0376 95.9436 11.5597 96.1708 9.09685C96.385 6.90753 97.837 5.79942 100.308 5.59996C102.306 5.44166 104.318 5.44165 106.324 5.42899C108.145 5.42899 109.973 5.38783 111.786 5.56513C114.456 5.82633 115.539 7.12916 115.554 9.80288C115.562 11.3036 115.554 12.8106 115.554 14.4031H100.217C99.6968 16.3376 100.368 17.2827 102.218 17.289C106.344 17.3032 110.47 17.289 114.596 17.2969L115.524 17.2937ZM111.421 11.7532C111.421 11.2229 111.421 10.7796 111.421 10.3284C111.421 8.88631 111.16 8.60453 109.721 8.59504C107.474 8.57921 105.227 8.57921 102.98 8.59504C102.428 8.59504 101.85 8.59504 101.333 8.74384C100.949 8.86098 100.455 9.176 100.343 9.5116C100.114 10.2018 100.109 10.9664 100.006 11.7421L111.421 11.7532Z" fill="black"/>
<path d="M72.7676 16.1096L77.8234 7.85892C78.9945 5.94663 80.1831 4.04542 81.3272 2.1173C81.5954 1.66456 81.8953 1.5205 82.4031 1.53317C83.7726 1.56641 85.1436 1.54425 86.6321 1.54425C86.4861 1.83869 86.4052 2.04448 86.2894 2.23128C82.8252 7.77977 79.3357 13.3156 75.9049 18.8768C74.975 20.3838 73.7515 21.017 71.9996 20.797C70.8174 20.6482 70.1176 19.9263 69.54 19.0034C68.1255 16.7492 66.7153 14.4907 65.3094 12.2281C63.2612 8.93538 61.2147 5.64164 59.1698 2.34684C59.0349 2.12838 58.9063 1.90518 58.6937 1.55533C60.3853 1.55533 61.9563 1.53158 63.5257 1.58382C63.7479 1.58382 64.0113 1.93842 64.1605 2.18537C66.8655 6.56084 69.5632 10.9405 72.2535 15.3245C72.4027 15.5651 72.5629 15.7962 72.7676 16.1096Z" fill="black"/>
<path d="M0.00657492 1.59648H4.17845C4.17845 1.90042 4.17845 2.15687 4.17845 2.4149C4.17845 6.02735 4.17845 9.63928 4.17845 13.2507C4.17845 13.4881 4.17845 13.7256 4.17845 13.963C4.21336 15.9228 5.01949 16.7824 6.97928 16.8014C10.5735 16.8378 14.1678 16.8188 17.77 16.8236H18.7586V20.398C18.5237 20.4123 18.2952 20.4392 18.0667 20.4408C14.3408 20.4408 10.6084 20.4503 6.88724 20.4408C6.12072 20.4385 5.35539 20.3803 4.59739 20.2666C1.56964 19.7981 0.119243 18.2435 0.0525943 15.1424C-0.0315098 10.979 0.0129226 6.81095 0.00340141 2.64602C0.00657515 2.31042 0.00657492 1.9764 0.00657492 1.59648Z" fill="black"/>
<path d="M29.3652 1.19755H33.5625V5.42105H38.2866V8.72324H33.6275V20.3727H29.3938V8.77864H27.315V5.42105H29.3652V1.19755Z" fill="black"/>
<path d="M179.67 5.42106V8.75965C178.794 8.75965 177.958 8.75965 177.12 8.75965C174.819 8.77707 174.129 9.4546 174.123 11.731C174.115 14.3145 174.123 16.898 174.123 19.4878C174.123 19.7743 174.123 20.0593 174.123 20.3949H169.987V19.1933C169.987 16.7412 169.987 14.286 169.987 11.837C169.978 11.2578 170.015 10.6788 170.097 10.1052C170.536 7.41408 171.788 6.135 174.473 5.63002C175.07 5.51765 175.675 5.45255 176.282 5.43531C177.39 5.40523 178.496 5.42106 179.67 5.42106Z" fill="black"/>
<path d="M25.2029 20.3949H21.077V5.85481H25.2029V20.3949Z" fill="black"/>
<path d="M88.6538 5.85796H92.7638V20.3917H88.6538V5.85796Z" fill="black"/>
<path d="M23.1209 0.423462C25.1473 0.447207 25.2536 0.55327 25.2489 2.58904C25.2489 2.90564 25.2489 3.22224 25.2203 3.53885C25.1711 4.11507 24.8426 4.48866 24.2682 4.51557C23.5081 4.55831 22.7432 4.54565 21.9815 4.51557C21.3928 4.49024 21.0643 4.11349 21.0294 3.54835C20.9879 2.86625 20.9848 2.18237 21.0199 1.49992C21.05 0.903117 21.3833 0.526358 22.0133 0.483617C22.383 0.451956 22.7448 0.440875 23.1209 0.423462Z" fill="black"/>
<path d="M90.6628 0.439283C92.7257 0.450364 92.794 0.513685 92.8035 2.56687C92.8035 2.85498 92.7955 3.14467 92.7813 3.43278C92.7511 4.07548 92.4353 4.49024 91.772 4.51556C91.0119 4.54248 90.2486 4.53773 89.4901 4.49182C88.895 4.45541 88.6205 4.04699 88.5967 3.48185C88.5745 2.95787 88.5824 2.43073 88.5856 1.89883C88.5856 0.751139 88.8665 0.47411 90.0296 0.434534C90.2439 0.432951 90.4549 0.439283 90.6628 0.439283Z" fill="black"/>
<path d="M0.0527344 29.9009V25.5255H0.909644C64.1389 25.5255 127.368 25.5313 190.598 25.5429C190.881 25.5553 191.164 25.505 191.426 25.3955C191.688 25.2861 191.923 25.1201 192.113 24.9097C194.225 22.7647 196.374 20.6561 198.508 18.5317C198.691 18.3496 198.864 18.1581 199.033 17.9792L181.219 0.00556475H183.519C185.158 0.00556475 186.799 -0.0150147 188.438 0.0229778C188.794 0.0384883 189.133 0.176687 189.398 0.413984C195.185 6.13081 200.959 11.8592 206.722 17.5993C206.814 17.6895 206.895 17.7908 207.099 18.0219C206.722 18.3575 206.338 18.6678 205.989 19.0145C200.514 24.4474 195.048 29.8862 189.591 35.3307C189.391 35.5495 189.145 35.722 188.871 35.8361C188.597 35.9501 188.301 36.0029 188.005 35.9908C155.901 35.9729 123.798 35.9729 91.6944 35.9908C90.8391 35.9908 90.2249 35.7597 89.6172 35.1582C88.0049 33.5593 86.3117 32.0428 84.6804 30.4629C84.4898 30.2689 84.2602 30.1174 84.0066 30.0184C83.7531 29.9193 83.4814 29.875 83.2094 29.8883C60.3881 29.9009 37.5663 29.9046 14.744 29.8994H0.0527344V29.9009Z" fill="#0461CC"/>
<path d="M193.051 0.0103118C194.655 0.0103118 196.131 -0.0055184 197.607 0.026142C197.862 0.06391 198.096 0.187991 198.27 0.377573C204.066 6.12183 209.857 11.8735 215.643 17.6325C215.734 17.7212 215.802 17.8241 216 18.0488C215.343 18.6567 214.689 19.225 214.075 19.8345C208.882 24.9857 203.698 30.1447 198.524 35.3117C198.038 35.7961 197.588 35.9957 196.866 35.9972C195.429 36 194.069 36 192.857 36L210.909 18.0663L193.051 0.0103118Z" fill="#0461CC"/>
<path d="M102.086 32.2263H103.727C103.865 32.7458 104.252 32.8733 104.749 32.8647C105.582 32.8497 106.416 32.8618 107.248 32.8595C107.402 32.8644 107.555 32.857 107.708 32.8376C108.289 32.7429 108.566 32.2777 108.329 31.7346C108.26 31.5765 108.061 31.4408 107.891 31.371C107.72 31.3012 107.497 31.3 107.297 31.296C106.159 31.2729 105.019 31.2844 103.882 31.2325C102.877 31.1869 102.428 30.7448 102.317 29.744C102.277 29.3722 102.285 28.9969 102.341 28.6272C102.456 27.8682 103.038 27.3869 103.973 27.3211C104.822 27.2634 105.676 27.2553 106.527 27.2634C107.242 27.2709 107.967 27.2709 108.668 27.3898C109.56 27.541 110.058 28.3092 109.944 29.1963H108.338C108.3 28.5701 107.843 28.5614 107.369 28.5654C106.488 28.5718 105.606 28.562 104.725 28.5695C104.117 28.5747 103.889 28.8298 103.933 29.4283C103.956 29.7417 104.092 29.905 104.4 29.9564C104.552 29.9765 104.706 29.985 104.86 29.9818C106.056 29.9956 107.254 29.9858 108.449 30.0257C109.456 30.0591 109.874 30.4666 109.99 31.4818C110.034 31.8438 110.033 32.2099 109.985 32.5715C109.848 33.5411 109.326 34.023 108.352 34.1235C108.047 34.1556 107.741 34.171 107.435 34.1696C106.2 34.161 104.963 34.1846 103.732 34.1154C102.578 34.0513 102.067 33.4239 102.086 32.2263Z" fill="white"/>
<path d="M148.611 34.1731V27.2715C148.711 27.2668 148.803 27.2588 148.895 27.2588C150.57 27.2588 152.246 27.253 153.921 27.2628C154.237 27.2667 154.551 27.3013 154.859 27.3661C155.612 27.5202 156.06 28.0039 156.239 28.7432C156.3 28.9658 156.334 29.1947 156.342 29.4254C156.342 30.3956 156.365 31.3687 156.297 32.3348C156.219 33.4349 155.613 34.0086 154.515 34.124C154.124 34.1595 153.732 34.1749 153.34 34.1702C151.875 34.1754 150.409 34.1702 148.945 34.1702L148.611 34.1731ZM150.266 32.7677C150.293 32.7783 150.32 32.7862 150.348 32.7914C151.239 32.7914 152.13 32.7983 153.019 32.7914C153.296 32.7931 153.573 32.7763 153.848 32.7412C154.442 32.6581 154.682 32.3885 154.697 31.7796C154.713 31.1551 154.71 30.5301 154.706 29.9056C154.701 29.0075 154.383 28.682 153.485 28.6399C153.39 28.6353 153.294 28.6353 153.198 28.6353C152.316 28.6353 151.435 28.6353 150.554 28.6353C150.461 28.6353 150.369 28.6434 150.266 28.6486V32.7677Z" fill="white"/>
<path d="M147.661 32.0746H142.89C142.76 32.6754 143.038 33.1925 143.723 33.1561C144.298 33.1255 144.872 33.1504 145.447 33.1492C145.927 33.1492 146.051 33.0511 146.173 32.5807H147.651C147.718 32.8596 147.68 33.1536 147.544 33.4058C147.407 33.658 147.182 33.8504 146.913 33.9457C146.565 34.0779 146.198 34.1527 145.827 34.1673C144.928 34.1985 144.026 34.191 143.125 34.1754C141.911 34.154 141.213 33.4349 141.201 32.2131C141.197 31.7998 141.185 31.3854 141.207 30.9728C141.253 30.0891 141.797 29.3954 142.716 29.3209C143.879 29.2311 145.048 29.2311 146.211 29.3209C147.035 29.3815 147.518 29.9391 147.648 30.7771C147.713 31.1915 147.661 31.6203 147.661 32.0746ZM142.886 31.1511H146.108C146.14 30.6813 145.916 30.3431 145.469 30.3131C144.822 30.2703 144.173 30.2659 143.526 30.2998C143.066 30.324 142.852 30.6513 142.885 31.1517L142.886 31.1511Z" fill="white"/>
<path d="M115.646 32.5784H117.127C117.232 33.1648 116.97 33.7091 116.405 33.9353C116.059 34.0732 115.693 34.1513 115.321 34.1662C114.401 34.1985 113.481 34.1904 112.562 34.1742C111.388 34.154 110.681 33.4199 110.67 32.239C110.667 31.8737 110.67 31.5078 110.67 31.1424C110.674 30.0989 111.327 29.3336 112.358 29.284C113.409 29.2338 114.466 29.2401 115.52 29.284C116.443 29.325 117.072 30.0031 117.153 30.9531C117.182 31.3139 117.157 31.6786 117.157 32.0774H112.36C112.25 32.8185 112.518 33.144 113.204 33.1452C113.77 33.1452 114.335 33.1452 114.9 33.1452C115.401 33.1463 115.528 33.0488 115.646 32.5784ZM115.578 31.1551C115.611 30.7315 115.406 30.3581 115.03 30.3321C114.317 30.283 113.602 30.2799 112.889 30.3229C112.494 30.3471 112.286 30.7558 112.378 31.1551H115.578Z" fill="white"/>
<path d="M163.544 32.0821H158.707C158.564 32.7527 158.87 33.1452 159.512 33.1486C160.087 33.1486 160.662 33.1486 161.236 33.1486C161.742 33.1486 161.85 33.0667 161.995 32.5807H163.472C163.595 33.2046 163.246 33.7968 162.6 34.004C162.311 34.1013 162.009 34.1568 161.703 34.169C160.766 34.1902 159.828 34.1917 158.89 34.1737C157.928 34.1546 157.215 33.6542 157.095 32.7943C156.999 32.0811 156.995 31.3585 157.084 30.6444C157.177 29.8704 157.88 29.3129 158.718 29.2834C159.759 29.2465 160.804 29.2453 161.846 29.2834C162.686 29.3152 163.267 29.8271 163.433 30.6553C163.523 31.1078 163.509 31.5834 163.544 32.0821ZM161.923 31.1511C161.937 30.668 161.723 30.3431 161.291 30.3154C160.634 30.2715 159.975 30.2675 159.317 30.3033C158.87 30.3281 158.657 30.6698 158.71 31.1511H161.923Z" fill="white"/>
<path d="M164.246 32.6113H165.579C165.626 33.1157 165.985 33.1521 166.384 33.1457C166.988 33.1359 167.591 33.1457 168.194 33.1423C168.31 33.1461 168.425 33.1378 168.539 33.1175C168.738 33.0742 168.901 32.9818 168.899 32.7389C168.905 32.6366 168.875 32.5355 168.813 32.4536C168.752 32.3717 168.664 32.3143 168.564 32.2916C168.407 32.2514 168.244 32.232 168.082 32.2338C167.277 32.2258 166.472 32.2413 165.667 32.2136C165.398 32.2044 165.131 32.0982 164.867 32.022C164.786 31.9917 164.712 31.9434 164.652 31.8806C164.158 31.4189 164.193 30.8279 164.291 30.2421C164.376 29.7278 164.747 29.4589 165.227 29.3394C165.421 29.2872 165.621 29.2601 165.822 29.2586C166.997 29.2753 168.179 29.2586 169.347 29.3469C170.082 29.4046 170.426 29.9818 170.321 30.7771H168.894C168.865 30.4308 168.648 30.2929 168.351 30.2871C167.576 30.2721 166.799 30.2652 166.026 30.2767C165.796 30.2802 165.588 30.38 165.591 30.6732C165.594 30.9664 165.792 31.0824 166.043 31.0905C166.607 31.1078 167.173 31.1003 167.737 31.1061C168.14 31.1101 168.542 31.0911 168.944 31.1303C170.378 31.2711 170.474 31.9435 170.356 32.9645C170.28 33.6231 169.781 34.0461 169.005 34.1136C168.357 34.1714 167.704 34.1667 167.054 34.1673C166.519 34.1673 165.98 34.1714 165.449 34.1096C164.6 34.0184 164.139 33.4303 164.246 32.6113Z" fill="white"/>
<path d="M171.217 27.2703H172.838V30.986C173.199 31.0357 173.482 31.0386 173.733 30.7298C174.107 30.2681 174.532 29.8485 174.95 29.426C175.049 29.331 175.178 29.2735 175.315 29.2632C175.828 29.2453 176.343 29.2557 176.894 29.2557L174.643 31.5014L177.172 34.1731C176.844 34.1731 176.585 34.1731 176.327 34.1731C175.955 34.1679 175.534 34.2643 175.225 34.1206C174.927 33.9815 174.741 33.5948 174.508 33.3125C174.244 32.9957 173.956 32.6938 173.727 32.3533C173.505 32.0249 173.227 31.9886 172.861 32.0699V34.1477H171.217V27.2703Z" fill="white"/>
<path d="M140.688 32.4076C140.795 33.3812 140.37 34.0236 139.413 34.0923C138.221 34.1781 137.025 34.187 135.832 34.1188C134.912 34.0675 134.352 33.447 134.263 32.5305C134.211 31.9946 134.211 31.455 134.263 30.9191C134.354 29.9668 134.895 29.3567 135.834 29.3071C137.037 29.2461 138.243 29.2624 139.444 29.3561C140.336 29.4243 140.72 29.9858 140.701 30.9312H139.163C139.159 30.4314 138.78 30.4008 138.403 30.3968C137.819 30.391 137.235 30.3852 136.653 30.4187C136.177 30.4458 135.915 30.7494 135.898 31.2319C135.886 31.5678 135.886 31.9049 135.898 32.2408C135.911 32.6788 136.22 33.0113 136.66 33.0234C137.31 33.0407 137.962 33.0361 138.614 33.0199C138.975 33.0113 139.061 32.8976 139.17 32.4081L140.688 32.4076Z" fill="white"/>
<path d="M127.638 32.7741C127.828 32.3701 127.999 32.0111 128.168 31.6503C128.51 30.9202 128.857 30.1919 129.188 29.4571C129.259 29.3007 129.346 29.2476 129.513 29.2517C129.95 29.2626 130.387 29.2551 130.877 29.2551C130.8 29.4208 130.744 29.5397 130.689 29.6592C130.016 31.0928 129.346 32.527 128.677 33.9618C128.609 34.109 128.536 34.1817 128.362 34.1777C127.874 34.1656 127.385 34.1817 126.897 34.1667C126.846 34.1625 126.796 34.1467 126.751 34.1204C126.706 34.0941 126.668 34.0581 126.639 34.0149C125.892 32.4566 125.16 30.8931 124.425 29.3302C124.421 29.3232 124.425 29.3117 124.436 29.2586C124.919 29.2586 125.41 29.25 125.901 29.2684C125.968 29.2684 126.051 29.3971 126.092 29.4825C126.563 30.4868 127.031 31.4997 127.501 32.5068C127.537 32.5842 127.577 32.6569 127.638 32.7741Z" fill="white"/>
<path d="M119.516 34.1592H117.891V29.2748H119.516V29.8733L119.601 29.931C119.658 29.8479 119.699 29.7342 119.778 29.6869C120.028 29.538 120.286 29.3181 120.553 29.2996C121.201 29.2597 121.852 29.2711 122.499 29.3336C123.366 29.4121 123.907 30.1907 123.857 31.2498C123.364 31.2498 122.868 31.2556 122.373 31.2417C122.313 31.2417 122.228 31.1419 122.201 31.0686C122.002 30.5416 121.802 30.391 121.243 30.3806C121.042 30.3771 120.841 30.3748 120.64 30.3806C119.986 30.4077 119.529 30.87 119.521 31.528C119.512 32.2875 119.521 33.0471 119.518 33.8066C119.516 33.922 119.516 34.0346 119.516 34.1592Z" fill="white"/>
<path d="M133.259 34.1638H131.661V29.258H133.258L133.259 34.1638Z" fill="white"/>
<path d="M131.649 28.6232V27.2778H133.262V28.6232H131.649Z" fill="white"/>
</svg>
