<svg width="216" height="36" viewBox="0 0 216 36" fill="none" xmlns="http://www.w3.org/2000/svg">
<path d="M137.951 15.489C139.397 12.2707 140.781 9.2281 142.123 6.16812C142.365 5.61881 142.626 5.3592 143.272 5.40035C144.324 5.46684 145.383 5.41777 146.565 5.41777C146.435 5.72329 146.343 5.95758 146.24 6.18553C144.32 10.4359 142.418 14.6943 140.459 18.9257C140.173 19.5415 139.708 20.1842 139.151 20.542C137.901 21.343 136.425 20.7414 135.711 19.2186C134.424 16.4752 133.172 13.7144 131.902 10.9615C131.793 10.7241 131.675 10.4866 131.507 10.1415C130.998 11.1768 130.525 12.125 130.065 13.0796C129.078 15.1201 128.1 17.1638 127.113 19.2043C126.731 19.9958 126.197 20.6195 125.269 20.7873C123.86 21.0406 123.065 20.6021 122.422 19.1442C121.542 17.1432 120.689 15.1296 119.821 13.1287C118.817 10.8069 117.812 8.48514 116.806 6.16337C116.714 5.95125 116.638 5.73279 116.518 5.42252C117.857 5.42252 119.115 5.39877 120.372 5.44784C120.561 5.44784 120.812 5.76445 120.91 5.98924C122.151 8.83868 123.368 11.6992 124.593 14.5566C124.706 14.8209 124.828 15.0821 125.003 15.4747C125.193 15.109 125.337 14.8415 125.466 14.5787C126.721 11.9667 127.967 9.35474 129.232 6.74117C129.579 6.02565 129.973 5.32754 130.836 5.10433C132.25 4.74023 133.189 5.18031 133.843 6.58604C135.113 9.31042 136.342 12.049 137.59 14.7813C137.68 14.9634 137.778 15.1439 137.951 15.489Z" fill="black"/>
<path d="M44.2834 14.4331C44.3564 15.128 44.3278 15.747 44.5119 16.2963C44.6763 16.6698 44.982 16.9634 45.3624 17.1131C45.8131 17.2841 46.3447 17.2857 46.8414 17.2873C50.78 17.2999 54.7202 17.2873 58.6588 17.2873H59.7537V20.3979C59.4792 20.4106 59.2221 20.4312 58.9603 20.4312C54.9154 20.4312 50.8673 20.4422 46.8255 20.4312C46.0328 20.4364 45.2412 20.3729 44.4595 20.2412C41.7618 19.7536 40.5019 18.4856 40.2686 15.6773C40.1084 13.7063 40.1254 11.7249 40.3194 9.75685C40.586 7.02138 41.9062 5.80879 44.6848 5.5745C46.4193 5.42728 48.176 5.4257 49.9104 5.42728C51.9733 5.42728 54.0363 5.39087 56.0865 5.57767C58.6747 5.81354 59.7712 7.11953 59.8125 9.69352C59.8363 11.1705 59.8125 12.6474 59.8125 14.126C59.7994 14.233 59.7782 14.3388 59.749 14.4426L44.2834 14.4331ZM44.3754 11.742H55.6787C55.6787 11.3462 55.6787 10.9837 55.6787 10.6212C55.6787 8.78012 55.5089 8.60599 53.6332 8.59966C51.4386 8.59966 49.2455 8.59016 47.0509 8.59966C44.7277 8.6139 44.2754 9.09198 44.3341 11.4095C44.3357 11.4871 44.3532 11.5647 44.3754 11.7372V11.742Z" fill="black"/>
<path d="M167.085 17.2936V20.3947C166.817 20.4106 166.588 20.4375 166.358 20.4375C162.232 20.4375 158.106 20.504 153.98 20.4026C152.59 20.3478 151.216 20.0809 149.907 19.6111C148.525 19.1362 147.769 17.8524 147.685 16.4704C147.546 14.0326 147.496 11.5631 147.715 9.13945C147.912 6.95963 149.363 5.8151 151.819 5.59664C153.604 5.43834 155.407 5.42726 157.202 5.42568C159.287 5.42568 161.382 5.40035 163.456 5.58398C165.961 5.8056 167.097 7.1765 167.115 9.67293C167.126 11.2243 167.115 12.7772 167.115 14.422H151.599C151.66 15.1138 151.621 15.7343 151.798 16.2852C151.878 16.4721 151.994 16.6412 152.14 16.7826C152.286 16.924 152.459 17.0347 152.649 17.1084C153.125 17.2825 153.684 17.2873 154.207 17.2888C158.175 17.3015 162.142 17.2888 166.109 17.2888L167.085 17.2936ZM162.989 11.7229C162.989 11.267 162.989 10.8776 162.989 10.4866C162.989 8.82759 162.784 8.60122 161.131 8.58697C158.778 8.57747 156.425 8.57747 154.072 8.58697C153.679 8.58697 153.228 8.56165 152.906 8.73419C152.481 8.96373 151.984 9.31358 151.825 9.72833C151.602 10.3125 151.667 11.0027 151.592 11.7087L162.989 11.7229Z" fill="black"/>
<path d="M115.524 17.2936V20.3774C115.299 20.3995 115.099 20.4375 114.897 20.4375C110.695 20.4375 106.487 20.4565 102.29 20.4217C101.366 20.4057 100.447 20.2943 99.5461 20.0892C97.6212 19.6682 96.2914 18.4397 96.1391 16.5021C95.933 14.0375 95.9436 11.5595 96.1708 9.09673C96.385 6.90741 97.837 5.7993 100.308 5.59984C102.306 5.44153 104.318 5.44153 106.324 5.42887C108.145 5.42887 109.973 5.38771 111.786 5.56501C114.456 5.82621 115.539 7.12903 115.554 9.80276C115.562 11.3035 115.554 12.8105 115.554 14.403H100.217C99.6968 16.3375 100.368 17.2825 102.218 17.2889C106.344 17.3031 110.47 17.2889 114.596 17.2968L115.524 17.2936ZM111.421 11.753C111.421 11.2227 111.421 10.7795 111.421 10.3283C111.421 8.88619 111.16 8.60441 109.721 8.59491C107.474 8.57908 105.227 8.57908 102.98 8.59491C102.428 8.59491 101.85 8.59491 101.333 8.74372C100.949 8.86086 100.455 9.17588 100.343 9.51148C100.114 10.2017 100.109 10.9663 100.006 11.742L111.421 11.753Z" fill="black"/>
<path d="M72.7676 16.1095L77.8234 7.8588C78.9945 5.94651 80.1831 4.0453 81.3272 2.11718C81.5954 1.66443 81.8953 1.52038 82.4031 1.53304C83.7726 1.56629 85.1436 1.54412 86.6321 1.54412C86.4861 1.83857 86.4052 2.04436 86.2894 2.23116C82.8252 7.77965 79.3357 13.3155 75.9049 18.8766C74.975 20.3837 73.7515 21.0169 71.9996 20.7968C70.8174 20.648 70.1176 19.9262 69.54 19.0033C68.1255 16.7491 66.7153 14.4906 65.3094 12.2279C63.2612 8.93525 61.2147 5.64151 59.1698 2.34672C59.0349 2.12826 58.9063 1.90505 58.6937 1.55521C60.3853 1.55521 61.9563 1.53146 63.5257 1.5837C63.7479 1.5837 64.0113 1.9383 64.1605 2.18525C66.8655 6.56072 69.5632 10.9404 72.2535 15.3243C72.4027 15.5649 72.5629 15.7961 72.7676 16.1095Z" fill="black"/>
<path d="M0.00657492 1.59635H4.17845C4.17845 1.90029 4.17845 2.15674 4.17845 2.41478C4.17845 6.02723 4.17845 9.63916 4.17845 13.2506C4.17845 13.488 4.17845 13.7255 4.17845 13.9629C4.21336 15.9227 5.01949 16.7823 6.97928 16.8013C10.5735 16.8377 14.1678 16.8187 17.77 16.8234H18.7586V20.3979C18.5237 20.4122 18.2952 20.4391 18.0667 20.4406C14.3408 20.4406 10.6084 20.4501 6.88724 20.4406C6.12072 20.4384 5.35539 20.3802 4.59739 20.2665C1.56964 19.7979 0.119243 18.2434 0.0525943 15.1423C-0.0315098 10.9789 0.0129226 6.81083 0.00340141 2.6459C0.00657515 2.3103 0.00657492 1.97628 0.00657492 1.59635Z" fill="black"/>
<path d="M29.3652 1.19743H33.5625V5.42093H38.2866V8.72312H33.6275V20.3726H29.3938V8.77852H27.315V5.42093H29.3652V1.19743Z" fill="black"/>
<path d="M179.67 5.42094V8.75953C178.794 8.75953 177.958 8.75953 177.12 8.75953C174.819 8.77694 174.129 9.45448 174.123 11.7309C174.115 14.3144 174.123 16.8978 174.123 19.4877C174.123 19.7742 174.123 20.0591 174.123 20.3947H169.987V19.1932C169.987 16.7411 169.987 14.2859 169.987 11.8369C169.978 11.2577 170.015 10.6787 170.097 10.1051C170.536 7.41396 171.788 6.13488 174.473 5.6299C175.07 5.51753 175.675 5.45242 176.282 5.43518C177.39 5.40511 178.496 5.42094 179.67 5.42094Z" fill="black"/>
<path d="M25.2029 20.3947H21.077V5.85469H25.2029V20.3947Z" fill="black"/>
<path d="M88.6538 5.85784H92.7638V20.3916H88.6538V5.85784Z" fill="black"/>
<path d="M23.1209 0.42334C25.1473 0.447085 25.2536 0.553148 25.2489 2.58891C25.2489 2.90552 25.2489 3.22212 25.2203 3.53873C25.1711 4.11495 24.8426 4.48854 24.2682 4.51545C23.5081 4.55819 22.7432 4.54553 21.9815 4.51545C21.3928 4.49012 21.0643 4.11336 21.0294 3.54822C20.9879 2.86613 20.9848 2.18225 21.0199 1.49979C21.05 0.902995 21.3833 0.526236 22.0133 0.483495C22.383 0.451834 22.7448 0.440753 23.1209 0.42334Z" fill="black"/>
<path d="M90.6628 0.439161C92.7257 0.450242 92.794 0.513563 92.8035 2.56674C92.8035 2.85485 92.7955 3.14455 92.7813 3.43266C92.7511 4.07536 92.4353 4.49011 91.772 4.51544C91.0119 4.54235 90.2486 4.53761 89.4901 4.4917C88.895 4.45529 88.6205 4.04687 88.5967 3.48173C88.5745 2.95775 88.5824 2.4306 88.5856 1.89871C88.5856 0.751016 88.8665 0.473987 90.0296 0.434412C90.2439 0.432829 90.4549 0.439161 90.6628 0.439161Z" fill="black"/>
<path d="M0.0527344 29.9009V25.5255H0.909644C64.1389 25.5255 127.368 25.5313 190.598 25.5429C190.881 25.5553 191.164 25.505 191.426 25.3955C191.688 25.2861 191.923 25.1201 192.113 24.9097C194.225 22.7647 196.374 20.6561 198.508 18.5317C198.691 18.3496 198.864 18.1581 199.033 17.9792L181.219 0.00556475H183.519C185.158 0.00556475 186.799 -0.0150147 188.438 0.0229778C188.794 0.0384883 189.133 0.176687 189.398 0.413984C195.185 6.13081 200.959 11.8592 206.722 17.5993C206.814 17.6895 206.895 17.7908 207.099 18.0219C206.722 18.3575 206.338 18.6678 205.989 19.0145C200.514 24.4474 195.048 29.8862 189.591 35.3307C189.391 35.5495 189.145 35.722 188.871 35.8361C188.597 35.9501 188.301 36.0029 188.005 35.9908C155.901 35.9729 123.798 35.9729 91.6944 35.9908C90.8391 35.9908 90.2249 35.7597 89.6172 35.1582C88.0049 33.5593 86.3117 32.0428 84.6804 30.4629C84.4898 30.2689 84.2602 30.1174 84.0066 30.0184C83.7531 29.9193 83.4814 29.875 83.2094 29.8883C60.3881 29.9009 37.5663 29.9046 14.744 29.8994H0.0527344V29.9009Z" fill="#0461CC"/>
<path d="M193.051 0.0103118C194.655 0.0103118 196.131 -0.0055184 197.607 0.026142C197.862 0.06391 198.096 0.187991 198.27 0.377573C204.066 6.12183 209.857 11.8735 215.643 17.6325C215.734 17.7212 215.802 17.8241 216 18.0488C215.343 18.6567 214.689 19.225 214.075 19.8345C208.882 24.9857 203.698 30.1447 198.524 35.3117C198.038 35.7961 197.588 35.9957 196.866 35.9972C195.429 36 194.069 36 192.857 36L210.909 18.0663L193.051 0.0103118Z" fill="#0461CC"/>
<path d="M102.086 32.2261H103.727C103.865 32.7455 104.252 32.8731 104.749 32.8644C105.582 32.8494 106.416 32.8615 107.248 32.8592C107.402 32.8641 107.555 32.8568 107.708 32.8373C108.289 32.7427 108.566 32.2775 108.329 31.7344C108.26 31.5762 108.061 31.4406 107.891 31.3708C107.72 31.3009 107.497 31.2998 107.297 31.2957C106.159 31.2726 105.019 31.2842 103.882 31.2322C102.877 31.1866 102.428 30.7445 102.317 29.7438C102.277 29.372 102.285 28.9966 102.341 28.627C102.456 27.868 103.038 27.3867 103.973 27.3209C104.822 27.2631 105.676 27.2551 106.527 27.2631C107.242 27.2706 107.967 27.2706 108.668 27.3895C109.56 27.5408 110.058 28.3089 109.944 29.196H108.338C108.3 28.5698 107.843 28.5612 107.369 28.5652C106.488 28.5716 105.606 28.5617 104.725 28.5692C104.117 28.5744 103.889 28.8295 103.933 29.4281C103.956 29.7414 104.092 29.9048 104.4 29.9561C104.552 29.9763 104.706 29.9848 104.86 29.9815C106.056 29.9954 107.254 29.9856 108.449 30.0254C109.456 30.0589 109.874 30.4664 109.99 31.4816C110.034 31.8436 110.033 32.2097 109.985 32.5712C109.848 33.5409 109.326 34.0228 108.352 34.1232C108.047 34.1553 107.741 34.1707 107.435 34.1694C106.2 34.1607 104.963 34.1844 103.732 34.1151C102.578 34.0511 102.067 33.4237 102.086 32.2261Z" fill="white"/>
<path d="M148.611 34.1728V27.2712C148.711 27.2666 148.803 27.2585 148.895 27.2585C150.57 27.2585 152.246 27.2528 153.921 27.2626C154.237 27.2664 154.551 27.301 154.859 27.3659C155.612 27.52 156.06 28.0036 156.239 28.743C156.3 28.9655 156.334 29.1945 156.342 29.4252C156.342 30.3954 156.365 31.3684 156.297 32.3346C156.219 33.4347 155.613 34.0084 154.515 34.1238C154.124 34.1593 153.732 34.1747 153.34 34.17C151.875 34.1751 150.409 34.17 148.945 34.17L148.611 34.1728ZM150.266 32.7675C150.293 32.7781 150.32 32.786 150.348 32.7911C151.239 32.7911 152.13 32.7981 153.019 32.7911C153.296 32.7928 153.573 32.776 153.848 32.7409C154.442 32.6578 154.682 32.3883 154.697 31.7794C154.713 31.1549 154.71 30.5298 154.706 29.9054C154.701 29.0073 154.383 28.6818 153.485 28.6397C153.39 28.635 153.294 28.635 153.198 28.635C152.316 28.635 151.435 28.635 150.554 28.635C150.461 28.635 150.369 28.6431 150.266 28.6483V32.7675Z" fill="white"/>
<path d="M147.661 32.0743H142.89C142.76 32.6751 143.038 33.1923 143.723 33.1559C144.298 33.1253 144.872 33.1501 145.447 33.149C145.927 33.149 146.051 33.0509 146.173 32.5805H147.651C147.718 32.8594 147.68 33.1534 147.544 33.4056C147.407 33.6577 147.182 33.8501 146.913 33.9454C146.565 34.0777 146.198 34.1525 145.827 34.1671C144.928 34.1982 144.026 34.1907 143.125 34.1752C141.911 34.1538 141.213 33.4347 141.201 32.2128C141.197 31.7996 141.185 31.3852 141.207 30.9725C141.253 30.0889 141.797 29.3952 142.716 29.3207C143.879 29.2309 145.048 29.2309 146.211 29.3207C147.035 29.3813 147.518 29.9388 147.648 30.7769C147.713 31.1913 147.661 31.6201 147.661 32.0743ZM142.886 31.1509H146.108C146.14 30.6811 145.916 30.3428 145.469 30.3128C144.822 30.2701 144.173 30.2657 143.526 30.2996C143.066 30.3238 142.852 30.651 142.885 31.1514L142.886 31.1509Z" fill="white"/>
<path d="M115.646 32.5782H117.127C117.232 33.1646 116.97 33.7088 116.405 33.9351C116.059 34.073 115.693 34.151 115.321 34.1659C114.401 34.1982 113.481 34.1902 112.562 34.174C111.388 34.1538 110.681 33.4197 110.67 32.2388C110.667 31.8735 110.67 31.5075 110.67 31.1422C110.674 30.0987 111.327 29.3334 112.358 29.2838C113.409 29.2335 114.466 29.2399 115.52 29.2838C116.443 29.3247 117.072 30.0029 117.153 30.9529C117.182 31.3136 117.157 31.6784 117.157 32.0772H112.36C112.25 32.8183 112.518 33.1438 113.204 33.1449C113.77 33.1449 114.335 33.1449 114.9 33.1449C115.401 33.1461 115.528 33.0485 115.646 32.5782ZM115.578 31.1549C115.611 30.7313 115.406 30.3578 115.03 30.3319C114.317 30.2828 113.602 30.2797 112.889 30.3226C112.494 30.3469 112.286 30.7555 112.378 31.1549H115.578Z" fill="white"/>
<path d="M163.544 32.0818H158.707C158.564 32.7525 158.87 33.1449 159.512 33.1484C160.087 33.1484 160.662 33.1484 161.236 33.1484C161.742 33.1484 161.85 33.0664 161.995 32.5805H163.472C163.595 33.2044 163.246 33.7965 162.6 34.0037C162.311 34.101 162.009 34.1566 161.703 34.1688C160.766 34.19 159.828 34.1915 158.89 34.1734C157.928 34.1544 157.215 33.654 157.095 32.794C156.999 32.0808 156.995 31.3582 157.084 30.6441C157.177 29.8701 157.88 29.3126 158.718 29.2832C159.759 29.2462 160.804 29.2451 161.846 29.2832C162.686 29.3149 163.267 29.8269 163.433 30.6551C163.523 31.1076 163.509 31.5831 163.544 32.0818ZM161.923 31.1509C161.937 30.6678 161.723 30.3428 161.291 30.3151C160.634 30.2713 159.975 30.2673 159.317 30.303C158.87 30.3278 158.657 30.6695 158.71 31.1509H161.923Z" fill="white"/>
<path d="M164.246 32.6111H165.579C165.626 33.1155 165.985 33.1519 166.384 33.1455C166.988 33.1357 167.591 33.1455 168.194 33.142C168.31 33.1459 168.425 33.1376 168.539 33.1172C168.738 33.0739 168.901 32.9816 168.899 32.7386C168.905 32.6363 168.875 32.5352 168.813 32.4534C168.752 32.3715 168.664 32.3141 168.564 32.2913C168.407 32.2512 168.244 32.2318 168.082 32.2336C167.277 32.2255 166.472 32.2411 165.667 32.2134C165.398 32.2042 165.131 32.098 164.867 32.0218C164.786 31.9915 164.712 31.9431 164.652 31.8804C164.158 31.4187 164.193 30.8276 164.291 30.2418C164.376 29.7276 164.747 29.4586 165.227 29.3392C165.421 29.287 165.621 29.2598 165.822 29.2584C166.997 29.2751 168.179 29.2584 169.347 29.3467C170.082 29.4044 170.426 29.9815 170.321 30.7769H168.894C168.865 30.4306 168.648 30.2926 168.351 30.2869C167.576 30.2718 166.799 30.2649 166.026 30.2765C165.796 30.2799 165.588 30.3798 165.591 30.673C165.594 30.9662 165.792 31.0822 166.043 31.0903C166.607 31.1076 167.173 31.1001 167.737 31.1058C168.14 31.1099 168.542 31.0908 168.944 31.1301C170.378 31.2709 170.474 31.9433 170.356 32.9643C170.28 33.6228 169.781 34.0459 169.005 34.1134C168.357 34.1711 167.704 34.1665 167.054 34.1671C166.519 34.1671 165.98 34.1711 165.449 34.1094C164.6 34.0182 164.139 33.43 164.246 32.6111Z" fill="white"/>
<path d="M171.217 27.2701H172.838V30.9858C173.199 31.0354 173.482 31.0383 173.733 30.7295C174.107 30.2678 174.532 29.8482 174.95 29.4257C175.049 29.3308 175.178 29.2732 175.315 29.263C175.828 29.2451 176.343 29.2555 176.894 29.2555L174.643 31.5012L177.172 34.1728C176.844 34.1728 176.585 34.1728 176.327 34.1728C175.955 34.1676 175.534 34.264 175.225 34.1203C174.927 33.9812 174.741 33.5945 174.508 33.3123C174.244 32.9954 173.956 32.6936 173.727 32.3531C173.505 32.0247 173.227 31.9883 172.861 32.0697V34.1474H171.217V27.2701Z" fill="white"/>
<path d="M140.688 32.4073C140.795 33.381 140.37 34.0234 139.413 34.092C138.221 34.1779 137.025 34.1867 135.832 34.1186C134.912 34.0672 134.352 33.4468 134.263 32.5303C134.211 31.9944 134.211 31.4547 134.263 30.9188C134.354 29.9665 134.895 29.3565 135.834 29.3068C137.037 29.2458 138.243 29.2622 139.444 29.3559C140.336 29.424 140.72 29.9856 140.701 30.931H139.163C139.159 30.4311 138.78 30.4006 138.403 30.3965C137.819 30.3907 137.235 30.385 136.653 30.4184C136.177 30.4456 135.915 30.7492 135.898 31.2317C135.886 31.5676 135.886 31.9046 135.898 32.2405C135.911 32.6786 136.22 33.011 136.66 33.0231C137.31 33.0405 137.962 33.0358 138.614 33.0197C138.975 33.011 139.061 32.8973 139.17 32.4079L140.688 32.4073Z" fill="white"/>
<path d="M127.638 32.7738C127.828 32.3698 127.999 32.0108 128.168 31.6501C128.51 30.92 128.857 30.1916 129.188 29.4569C129.259 29.3005 129.346 29.2474 129.513 29.2514C129.95 29.2624 130.387 29.2549 130.877 29.2549C130.8 29.4205 130.744 29.5394 130.689 29.6589C130.016 31.0926 129.346 32.5268 128.677 33.9616C128.609 34.1088 128.536 34.1815 128.362 34.1775C127.874 34.1653 127.385 34.1815 126.897 34.1665C126.846 34.1623 126.796 34.1464 126.751 34.1201C126.706 34.0939 126.668 34.0578 126.639 34.0147C125.892 32.4564 125.16 30.8929 124.425 29.3299C124.421 29.323 124.425 29.3115 124.436 29.2584C124.919 29.2584 125.41 29.2497 125.901 29.2682C125.968 29.2682 126.051 29.3969 126.092 29.4823C126.563 30.4866 127.031 31.4995 127.501 32.5066C127.537 32.5839 127.577 32.6567 127.638 32.7738Z" fill="white"/>
<path d="M119.516 34.159H117.891V29.2745H119.516V29.873L119.601 29.9308C119.658 29.8476 119.699 29.7339 119.778 29.6866C120.028 29.5377 120.286 29.3178 120.553 29.2993C121.201 29.2594 121.852 29.2708 122.499 29.3334C123.366 29.4119 123.907 30.1905 123.857 31.2495C123.364 31.2495 122.868 31.2553 122.373 31.2415C122.313 31.2415 122.228 31.1416 122.201 31.0683C122.002 30.5414 121.802 30.3907 121.243 30.3804C121.042 30.3769 120.841 30.3746 120.64 30.3804C119.986 30.4075 119.529 30.8698 119.521 31.5277C119.512 32.2873 119.521 33.0468 119.518 33.8063C119.516 33.9218 119.516 34.0343 119.516 34.159Z" fill="white"/>
<path d="M133.259 34.1636H131.661V29.2578H133.258L133.259 34.1636Z" fill="white"/>
<path d="M131.649 28.6229V27.2776H133.262V28.6229H131.649Z" fill="white"/>
</svg>
