<svg width="32" height="32" viewBox="0 0 32 32" fill="none" xmlns="http://www.w3.org/2000/svg">
<path d="M0.267578 1.77416C0.267578 0.945736 0.939151 0.274164 1.76758 0.274164H13.7697C14.5981 0.274164 15.2697 0.945737 15.2697 1.77416V13.8843C15.2697 14.7127 14.5981 15.3843 13.7697 15.3843H1.76758C0.939151 15.3843 0.267578 14.7127 0.267578 13.8843V1.77416ZM12.0061 13.6247C12.8346 13.6247 13.5061 12.9532 13.5061 12.1247V3.53882C13.5061 2.71039 12.8346 2.03882 12.0061 2.03882H3.50942C2.68099 2.03882 2.00942 2.71039 2.00942 3.53882V12.1247C2.00942 12.9532 2.68099 13.6247 3.50942 13.6247H12.0061Z" fill="#0461CC"/>
<path d="M16.6627 1.77344C16.6627 0.94501 17.3342 0.273438 18.1627 0.273438H30.1618C30.9903 0.273438 31.6618 0.94501 31.6618 1.77344V13.8836C31.6618 14.712 30.9903 15.3836 30.1618 15.3836H18.1627C17.3342 15.3836 16.6627 14.712 16.6627 13.8836V1.77344ZM29.92 3.54391C29.92 2.71548 29.2484 2.04391 28.42 2.04391H19.9074C19.079 2.04391 18.4074 2.71548 18.4074 3.54391V12.1138C18.4074 12.9422 19.079 13.6138 19.9074 13.6138H28.42C29.2484 13.6138 29.92 12.9422 29.92 12.1138V3.54391Z" fill="#0461CC"/>
<path d="M22.073 16.5779C22.9014 16.5779 23.573 17.2495 23.573 18.0779V30.1677C23.573 30.9961 22.9014 31.6677 22.073 31.6677H10.0803C9.25188 31.6677 8.58031 30.9961 8.58031 30.1677V18.0779C8.58031 17.2495 9.25188 16.5779 10.0803 16.5779H22.073ZM20.3218 29.922C21.1502 29.922 21.8218 29.2504 21.8218 28.422V19.8324C21.8218 19.004 21.1502 18.3324 20.3218 18.3324H11.8113C10.9829 18.3324 10.3113 19.004 10.3113 19.8324V28.422C10.3113 29.2504 10.9829 29.922 11.8113 29.922H20.3218Z" fill="#0461CC"/>
<path d="M11.37 11.8906H9.59206C9.40069 11.3378 9.19343 10.7755 9.01434 10.2045C8.94862 9.99504 8.85763 9.91357 8.63737 9.92012C7.90366 9.93321 7.16995 9.93467 6.43624 9.92012C6.21959 9.91575 6.14738 10.0052 6.09033 10.1922C5.94156 10.6752 5.75886 11.148 5.61876 11.6339C5.55521 11.8521 5.44833 11.9139 5.23602 11.9081C4.75867 11.895 4.27988 11.9037 3.7426 11.9037C3.98308 11.2447 4.20333 10.6359 4.42648 10.0278C5.07642 8.25075 5.73647 6.47591 6.3763 4.6938C6.47379 4.42248 6.59295 4.31265 6.88181 4.33011C7.39743 4.35775 7.91594 4.34538 8.433 4.3352C8.62582 4.33156 8.72692 4.37811 8.79914 4.58178C9.64767 6.98218 10.5092 9.37603 11.3657 11.7721C11.3715 11.8113 11.3729 11.8511 11.37 11.8906ZM7.59386 5.93764L7.51081 5.9471L6.60234 8.68573H8.51966L7.59386 5.93764Z" fill="#0461CC"/>
<path d="M26.6638 11.8404C25.759 11.9023 24.8505 12.031 23.9471 12.0034C23.2755 11.9823 22.593 11.8135 21.9467 11.6099C21.1964 11.3749 20.7631 10.6657 20.7631 9.87793C20.7631 8.76259 20.7631 7.64726 20.7631 6.53192C20.7631 5.53176 21.1964 4.90256 22.1424 4.54614C23.1737 4.15626 24.2424 4.20281 25.3112 4.29519C25.7388 4.33229 26.1634 4.41448 26.6017 4.47849V5.77253C25.7503 5.6896 24.909 5.5885 24.0641 5.5354C23.7533 5.52804 23.4433 5.57127 23.1462 5.66342C22.757 5.76962 22.5685 6.04312 22.5685 6.44682C22.5634 7.53791 22.562 8.629 22.5685 9.72009C22.5728 10.2409 22.9779 10.5595 23.6517 10.6722C24.5277 10.8177 25.3733 10.6468 26.2226 10.486C26.3288 10.4657 26.4342 10.4424 26.5403 10.4257C26.5801 10.4247 26.6198 10.4281 26.6588 10.4358L26.6638 11.8404Z" fill="#0461CC"/>
<path d="M12.8417 28.1733V20.631C13.0259 20.631 13.1905 20.631 13.3559 20.631C14.6558 20.6543 15.9557 20.6681 17.2512 20.7088C17.5745 20.7268 17.8944 20.7845 18.2038 20.8805C19.1014 21.138 19.5412 21.6668 19.5759 22.7266C19.6163 24.0083 19.5759 25.2943 19.5275 26.576C19.5044 27.1579 19.1895 27.6336 18.6262 27.8227C18.1207 27.9922 17.5827 28.1391 17.0548 28.1566C15.661 28.2031 14.2637 28.1733 12.8417 28.1733ZM14.6471 26.8342C15.4791 26.8342 16.2713 26.8749 17.0577 26.8204C17.6058 26.7818 17.7741 26.5294 17.7798 25.9737C17.79 24.9699 17.7885 23.9661 17.7798 22.9623C17.7798 22.4742 17.5993 22.2138 17.1371 22.0778C16.3182 21.8355 15.4805 21.9723 14.6435 21.9432L14.6471 26.8342Z" fill="#0461CC"/>
</svg>
