<svg width="31" height="32" viewBox="0 0 31 32" fill="none" xmlns="http://www.w3.org/2000/svg">
<path d="M7.53246 10.6506C7.72746 10.435 8.06426 10.4328 8.26321 10.6448L20.4892 23.6711C20.6728 23.8667 20.6692 24.1723 20.4811 24.3636C20.0746 24.7769 19.6608 25.1974 19.2486 25.6201C19.0784 25.7945 18.9956 25.6201 18.9042 25.5207C17.88 24.4332 16.8572 23.3444 15.8356 22.2542C15.2278 21.606 14.6204 20.9568 14.0019 20.2964C13.8043 20.0854 13.4694 20.0856 13.2719 20.2967L5.82215 28.2629C5.52337 28.5824 5.74991 29.1044 6.18734 29.1044H10.5172C10.7933 29.1044 11.0172 29.3283 11.0172 29.6044V31.1677C11.0172 31.4439 10.7933 31.6677 10.5172 31.6677H1.13086C0.854718 31.6677 0.630859 31.4439 0.630859 31.1677V21.1083C0.630859 20.8322 0.854717 20.6083 1.13086 20.6083H2.51445C2.79059 20.6083 3.01445 20.8322 3.01445 21.1083V25.6544C3.01445 26.108 3.56992 26.3272 3.8797 25.9959L11.4069 17.9444C11.5117 17.8322 11.518 17.6555 11.4129 17.5436V17.5436C9.78659 15.8102 8.16553 14.0719 6.52805 12.3511C6.28745 12.0983 6.28745 11.9624 6.52805 11.7208C6.87542 11.3774 7.20379 11.014 7.53246 10.6506Z" fill="#0461CC"/>
<path d="M10.3897 8.26704C10.207 8.07236 10.2095 7.76855 10.3957 7.57726C10.7878 7.1745 11.1923 6.75998 11.5917 6.33994C11.7541 6.16906 11.8389 6.30142 11.9388 6.40998L16.9814 11.781V11.781C17.1182 11.9267 17.3522 11.9204 17.4885 11.7744L25.0381 3.68848C25.3365 3.36889 25.1099 2.84725 24.6727 2.84725H20.335C20.0589 2.84725 19.835 2.6234 19.835 2.34725V0.773438C19.835 0.497296 20.0589 0.273438 20.335 0.273438H29.7312C30.0073 0.273438 30.2312 0.497295 30.2312 0.773437V10.8447C30.2312 11.1208 30.0073 11.3447 29.7312 11.3447H28.3482C28.0721 11.3447 27.8482 11.1208 27.8482 10.8447V6.25688C27.8482 5.80342 27.2931 5.58414 26.9832 5.91519L19.4182 13.9971C19.3079 14.1149 19.334 14.304 19.4518 14.4144V14.4144C21.0879 16.1527 22.7182 17.898 24.3596 19.6313C24.5614 19.8415 24.5785 19.9668 24.3596 20.1825C24.0031 20.5382 23.6618 20.9116 23.3279 21.2759C23.1324 21.4893 22.7973 21.4903 22.5992 21.2792L10.3897 8.26704Z" fill="#0461CC"/>
</svg>
