<svg width="23" height="24" viewBox="0 0 23 24" fill="none" xmlns="http://www.w3.org/2000/svg">
<path d="M16.6467 7.19618H18.004V14.6165H22.9917L15.8557 23.7324L12.3811 19.3L9.0824 21.3246C8.34561 21.7769 7.60538 22.224 6.87462 22.6877C6.67212 22.8164 6.51614 22.8347 6.29467 22.7088C4.44251 21.6536 2.58461 20.6089 0.720955 19.5747C0.497765 19.4514 0.429688 19.3123 0.429688 19.0647C0.43572 14.865 0.429688 10.6653 0.444337 6.46561C0.452702 6.38685 0.47756 6.31081 0.517243 6.2426C0.556927 6.1744 0.610517 6.11559 0.674421 6.07014C3.837 4.12254 7.00647 2.18631 10.1828 0.261454C10.2715 0.216905 10.3687 0.192426 10.4677 0.189707C10.5666 0.186989 10.6649 0.206094 10.7559 0.245706C12.6086 1.265 14.4459 2.3123 16.2943 3.3386C16.5528 3.48208 16.6605 3.63957 16.6553 3.95105C16.6373 5.00797 16.6467 6.07014 16.6467 7.19618ZM8.79544 14.7127L8.83939 14.5876H13.716V7.19618H15.1723V5.54518C15.0344 5.62305 14.9465 5.66854 14.8621 5.72016C12.4561 7.17255 10.0536 8.63019 7.64157 10.0721C7.38305 10.2261 7.2917 10.3914 7.29687 10.6924C7.30808 13.8273 7.30463 16.9622 7.30722 20.0979C7.30722 20.2309 7.32531 20.3604 7.33996 20.5608L11.4453 18.1031L8.79544 14.7127ZM5.65354 20.4987C5.67078 20.3701 5.68198 20.3237 5.68198 20.2843C5.68198 17.0471 5.68887 13.8098 5.6725 10.5787C5.6725 10.4247 5.51825 10.2121 5.37692 10.129C4.32388 9.50513 3.25619 8.90405 2.18849 8.30384C2.09074 8.2557 1.99032 8.21334 1.88775 8.17698C1.87598 8.23475 1.86764 8.29318 1.86276 8.35197C1.86276 11.6163 1.85328 14.8807 1.86276 18.1451C1.86276 18.2895 1.99891 18.4872 2.12731 18.5668C2.60471 18.8608 3.10452 19.1171 3.59657 19.3858C4.26787 19.7462 4.93485 20.1084 5.65354 20.4987ZM14.5768 4.03417C13.2446 3.28522 11.9916 2.5704 10.7283 1.88796C10.5853 1.81096 10.3112 1.85558 10.1587 1.94833C8.43178 2.993 6.71779 4.05779 5.00379 5.11646L2.55818 6.62397C3.79908 7.34404 4.98397 8.01774 6.15335 8.71944C6.43772 8.89005 6.64282 8.89442 6.92891 8.71944C8.61706 7.66952 10.3199 6.64322 12.0132 5.6073C12.8508 5.09721 13.6823 4.58275 14.5768 4.03417ZM15.0939 8.64419V16.0645H11.6667L15.8565 21.3815L20.073 16.0225H16.583V8.64419H15.0939Z" fill="#0461CC"/>
</svg>
