<svg width="38" height="32" viewBox="0 0 38 32" fill="none" xmlns="http://www.w3.org/2000/svg">
<path d="M14.082 28.9268H25.2431" stroke="#0461CC" stroke-width="2" stroke-linecap="round" stroke-linejoin="round"/>
<path d="M19.6621 23.4673V28.9265" stroke="#0461CC" stroke-width="2" stroke-linecap="round" stroke-linejoin="round"/>
<path d="M31.8012 2.99512H6.13069C4.35851 2.99512 2.92188 4.3045 2.92188 5.91971V20.5427C2.92188 22.1579 4.35851 23.4673 6.13069 23.4673H31.8012C33.5734 23.4673 35.0101 22.1579 35.0101 20.5427V5.91971C35.0101 4.3045 33.5734 2.99512 31.8012 2.99512Z" stroke="#0461CC" stroke-width="2" stroke-linecap="round" stroke-linejoin="round"/>
<path d="M7 10H10.1186V12.5926H13.6271V14.4444C13.6271 14.4444 15.6024 14.4162 16.7458 14.8148C17.862 15.204 18.3051 16.2963 18.3051 16.2963C25.322 16.2963 22.5932 20 30 20" stroke="#0461CC" stroke-width="2"/>
</svg>
