<svg width="37" height="32" viewBox="0 0 37 32" fill="none" xmlns="http://www.w3.org/2000/svg">
<path d="M26.9461 21.4329H29.8661C30.7328 21.4329 31.3594 21.5395 31.7461 21.7529C32.1328 21.9595 32.3261 22.3095 32.3261 22.8029V23.9429C32.3261 24.3229 32.1894 24.6229 31.9161 24.8429C31.6494 25.0562 31.2928 25.1929 30.8461 25.2529L32.7261 27.9229H30.9261L29.2261 25.3729H28.5061V27.9229H26.9461V21.4329ZM29.8461 24.3429C30.2128 24.3429 30.4628 24.2962 30.5961 24.2029C30.7294 24.1029 30.7961 23.9129 30.7961 23.6329V23.1729C30.7961 22.9329 30.7228 22.7695 30.5761 22.6829C30.4361 22.5895 30.1928 22.5429 29.8461 22.5429H28.5061V24.3429H29.8461Z" fill="#0461CC"/>
<path d="M12.3331 27.7127C9.57366 27.7127 6.81424 27.6558 4.05941 27.7311C1.83623 27.7918 0.538381 25.722 0.538381 24.2062C0.538381 19.0801 0.532862 13.953 0.54482 8.82683C0.54482 7.08136 1.86291 5.15217 4.14771 5.17054C9.64817 5.21188 15.1486 5.19259 20.65 5.17973C22.7656 5.17513 24.2161 6.76994 24.2373 8.75058C24.2924 13.8767 24.2639 19.0038 24.2492 24.13C24.2446 25.8304 23.1326 27.2534 21.5588 27.6411C21.2899 27.6965 21.0154 27.72 20.7411 27.7109C17.9424 27.7146 15.1397 27.7152 12.3331 27.7127ZM12.4104 25.9223C15.076 25.9223 17.7419 25.9223 20.4081 25.9223C21.7455 25.9223 22.37 25.3261 22.3719 24.0059C22.3792 18.9716 22.3792 13.9371 22.3719 8.90216C22.3719 7.56458 21.7547 6.96837 20.4265 6.96837H4.38502C4.21678 6.96252 4.04833 6.96866 3.88097 6.98674C2.99519 7.11444 2.40927 7.89163 2.40283 8.96738C2.39456 10.7726 2.40283 12.5787 2.40283 14.3875C2.40283 17.5707 2.3964 20.7529 2.40283 23.9361C2.40283 25.2599 3.07429 25.9223 4.36755 25.9223C7.04787 25.9229 9.72881 25.9229 12.4104 25.9223Z" fill="#0461CC"/>
<path d="M15.3418 16.652C15.3418 16.0402 15.3418 15.4293 15.3418 14.8147C15.3418 14.416 15.5322 14.2185 15.9259 14.2166C16.5532 14.2166 17.1814 14.2029 17.8087 14.2166C18.6448 14.2378 19.2565 14.8358 19.2804 15.6681C19.3019 16.3418 19.3019 17.0155 19.2804 17.6892C19.2547 18.516 18.6678 19.0947 17.8473 19.1177C17.2035 19.1361 16.5596 19.1177 15.9157 19.1223C15.5202 19.1223 15.3271 18.9386 15.3344 18.5307C15.3473 17.906 15.3418 17.2785 15.3418 16.652ZM16.3591 18.143C16.865 18.143 17.3221 18.1559 17.7784 18.143C18.1058 18.1311 18.2769 17.9244 18.2824 17.6038C18.2916 16.9919 18.3174 16.3773 18.2659 15.7664C18.2502 15.5827 18.0239 15.2814 17.863 15.2593C17.3736 15.1923 16.8687 15.2345 16.3591 15.2345V18.143Z" fill="#0461CC"/>
<path d="M12.4039 15.8565C12.7654 15.3806 13.0634 14.9378 13.4157 14.5446C13.5537 14.3921 13.8535 14.2451 14.0154 14.2966C14.1773 14.348 14.3447 14.6512 14.3493 14.8478C14.3797 16.0714 14.364 17.2951 14.3649 18.5224C14.3649 18.8531 14.2601 19.1039 13.8784 19.1049C13.4966 19.1058 13.3899 18.8522 13.389 18.5233C13.389 17.8098 13.389 17.0967 13.389 16.3838C13.0331 16.6594 12.7166 17.0893 12.3929 17.0957C12.0884 17.1012 11.7748 16.6575 11.4206 16.3755C11.4206 16.9037 11.4206 17.4421 11.4206 17.9804C11.4206 18.1945 11.4206 18.4085 11.4151 18.6235C11.4041 18.934 11.244 19.1085 10.9267 19.1067C10.6094 19.1049 10.4668 18.911 10.4493 18.6088C10.441 18.425 10.4493 18.2413 10.4493 18.0576C10.4493 17.0477 10.4493 16.0371 10.4493 15.026C10.4493 14.7191 10.4134 14.3829 10.8007 14.2662C11.1879 14.1496 11.3452 14.45 11.5283 14.6879C11.7996 15.0526 12.0728 15.421 12.4039 15.8565Z" fill="#0461CC"/>
<path d="M5.53846 16.6428C5.53846 16.3066 5.52374 15.9694 5.53846 15.6323C5.58169 14.8285 6.1437 14.2644 6.94761 14.2221C7.31526 14.2022 7.68373 14.2022 8.05138 14.2221C8.41487 14.2351 8.76067 14.3821 9.02207 14.6347C9.28348 14.8873 9.44196 15.2276 9.46696 15.59C9.48352 15.9079 9.37498 16.1412 9.04293 16.1936C8.71088 16.246 8.50944 16.0604 8.46897 15.7407C8.41746 15.3301 8.17003 15.2244 7.80119 15.2189C6.5291 15.1987 6.52542 15.1969 6.5245 16.4664C6.5245 16.8339 6.5245 17.2014 6.5245 17.5688C6.5245 17.9363 6.72042 18.1347 7.08926 18.1467C7.31829 18.154 7.54916 18.1467 7.7782 18.1467C8.16727 18.1595 8.42206 18.0346 8.47357 17.601C8.50852 17.3024 8.7164 17.1306 9.01902 17.1683C9.34371 17.2087 9.47892 17.431 9.46513 17.7553C9.44305 18.4094 8.94543 19.0112 8.29145 19.0846C7.8201 19.1353 7.34527 19.1455 6.87218 19.115C6.1161 19.069 5.59917 18.5445 5.5449 17.7884C5.5173 17.4081 5.5403 17.025 5.5403 16.6428H5.53846Z" fill="#0461CC"/>
</svg>
