<svg width="33" height="32" viewBox="0 0 33 32" fill="none" xmlns="http://www.w3.org/2000/svg">
<path d="M5.97163 22.1329L7.54356 20.8352C5.85837 19.5121 4.3259 18.0262 2.97142 16.4021C3.43278 15.883 3.88585 15.3769 4.35273 14.876C6.31094 12.7347 8.71129 10.9891 11.4085 9.74471C12.5783 9.18015 13.8348 8.79047 15.1325 8.58973C16.6596 8.39103 18.2155 8.55522 19.6577 9.0673C22.8343 10.1936 25.6766 12.0201 27.9455 14.3932C28.5809 15.0421 29.1887 15.7143 29.8379 16.4047C29.3683 16.9238 28.929 17.4273 28.4566 17.9127C26.856 19.6646 24.9617 21.1593 22.8485 22.3379C21.1909 23.236 19.4726 24.0224 17.5387 24.2612C15.959 24.4523 14.3535 24.2528 12.8809 23.6824C12.3284 23.4774 11.8063 23.249 11.2759 23.0154C11.2021 22.9728 11.1153 22.9545 11.0293 22.9635C10.9432 22.9724 10.8628 23.008 10.8007 23.0647C10.2841 23.4644 9.75089 23.8433 9.19837 24.2638C10.4111 24.9452 11.7106 25.4798 13.066 25.8548C16.5331 26.758 19.7903 26.1948 22.9065 24.6168C25.6079 23.204 28.0264 21.3596 30.0534 19.1663C30.6556 18.5693 31.2109 17.9153 31.7552 17.2716C31.9675 17.0466 32.0874 16.7578 32.0935 16.4572C32.0996 16.1565 31.9914 15.8637 31.7883 15.6312C29.4539 12.7477 26.7355 10.2638 23.3734 8.45996C21.8641 7.61253 20.2065 7.02372 18.478 6.72099C16.2236 6.35543 13.9054 6.58823 11.7842 7.39322C8.56021 8.59232 5.88323 10.5389 3.51014 12.8593C2.65649 13.6976 1.8719 14.6008 1.09008 15.4989C0.559656 16.1088 0.578994 16.6928 1.09008 17.3157C2.46671 19.0217 4.03273 20.5852 5.76167 21.9798C5.81968 22.0265 5.88323 22.068 5.97163 22.1329Z" fill="#0461CC"/>
<path d="M11.1101 19.4518C10.6515 19.8229 10.2122 20.1863 9.75916 20.5315C9.70794 20.5642 9.6501 20.5865 9.58926 20.5973C9.52842 20.608 9.46588 20.6068 9.40554 20.5938C9.29562 20.5608 9.17823 20.5563 9.06585 20.581C8.95347 20.6057 8.85032 20.6585 8.76738 20.7339C7.46526 21.76 6.15854 22.7818 4.84722 23.7992C4.54609 24.0354 4.43835 24.2612 4.6566 24.5493C4.96378 24.9471 5.31882 25.3103 5.71468 25.6316C5.82831 25.718 5.9727 25.7604 6.11846 25.7503C6.26422 25.7401 6.40039 25.6782 6.49927 25.5771C7.81796 24.5389 9.14217 23.5007 10.4719 22.4625C10.5576 22.3975 10.6224 22.3113 10.659 22.2137C10.6956 22.1161 10.7025 22.0108 10.6791 21.9097C10.6713 21.8581 10.6746 21.8055 10.6889 21.7551C10.7031 21.7048 10.728 21.6576 10.762 21.6164C11.1957 21.2478 11.6433 20.8975 12.1019 20.5289C12.7882 21.1221 13.6094 21.5607 14.5031 21.8112C15.3968 22.0617 16.3395 22.1175 17.2597 21.9746C18.7964 21.7679 20.1894 21.0131 21.1494 19.8671C22.0655 18.7861 22.5391 17.4325 22.4844 16.0517C22.4297 14.6709 21.8502 13.3542 20.8511 12.3402C19.7936 11.2873 18.3565 10.6422 16.8202 10.531C15.2839 10.4198 13.7586 10.8503 12.5419 11.7386C11.3252 12.6268 10.5044 13.9091 10.2396 15.3353C9.97492 16.7614 10.2852 18.229 11.1101 19.4518ZM20.7793 16.2204C20.7882 17.0505 20.5359 17.8645 20.054 18.5603C19.5722 19.256 18.8823 19.8026 18.0709 20.1312C17.2596 20.4599 16.363 20.556 15.4937 20.4075C14.6244 20.259 13.8212 19.8725 13.1849 19.2966C12.5486 18.7207 12.1076 17.981 11.9173 17.1704C11.727 16.3598 11.7958 15.5145 12.1151 14.7405C12.4345 13.9665 12.9901 13.2984 13.7122 12.8201C14.4343 12.3418 15.2907 12.0746 16.174 12.0521C16.7682 12.0387 17.3595 12.1362 17.9133 12.339C18.4672 12.5418 18.9727 12.8459 19.4006 13.2336C19.8284 13.6213 20.1701 14.085 20.4058 14.5977C20.6415 15.1104 20.7666 15.662 20.7737 16.2204H20.7793Z" fill="#0461CC"/>
<path d="M16.3149 14.2037C15.8873 14.2025 15.4687 14.3195 15.1113 14.5402C14.754 14.7608 14.4736 15.0753 14.3051 15.4445C14.1365 15.8138 14.0873 16.2214 14.1636 16.6167C14.2398 17.012 14.4382 17.3775 14.7339 17.6677C15.0296 17.9579 15.4096 18.16 15.8267 18.2487C16.2437 18.3375 16.6794 18.3091 17.0793 18.167C17.4793 18.0249 17.826 17.7754 18.0761 17.4496C18.3263 17.1238 18.4689 16.736 18.4863 16.3346C18.4982 16.0594 18.4509 15.7848 18.3472 15.5272C18.2435 15.2696 18.0856 15.0343 17.8829 14.8354C17.6801 14.6365 17.4368 14.478 17.1674 14.3694C16.898 14.2609 16.608 14.2046 16.3149 14.2037Z" fill="#0461CC"/>
</svg>
