<svg width="25" height="31" viewBox="0 0 25 31" fill="none" xmlns="http://www.w3.org/2000/svg">
<path d="M1.81427 30.035C1.473 29.9074 1.14229 29.7639 0.901551 29.4424C0.631243 29.0811 0.542548 28.6623 0.54297 28.2043C0.545786 26.2809 0.545786 24.3576 0.54297 22.4342C0.54297 18.4865 0.54297 14.5387 0.54297 10.5907C0.54297 9.99664 0.68446 9.46898 1.13427 9.11986C1.33996 8.96002 1.59886 8.87542 1.84045 8.78475C1.95575 8.74176 2.09133 8.75765 2.21762 8.75765C4.63814 8.75765 7.0591 8.76653 9.47962 8.75204C10.4329 8.74643 11.2003 9.12593 11.8554 9.89101C12.7161 10.8935 13.62 11.8507 14.4917 12.8415C14.8136 13.1978 15.1084 13.5828 15.3732 13.9926C15.6456 14.4268 15.7533 14.94 15.7533 15.4751C15.7533 19.7577 15.7533 24.0404 15.7533 28.323C15.7533 29.1297 15.3483 29.7176 14.6603 29.9588C14.6003 29.9798 14.542 30.0055 14.4829 30.0317L1.81427 30.035ZM2.26196 10.7795V11.0599C2.26196 16.6589 2.26056 22.258 2.25774 27.857C2.25774 28.0781 2.30631 28.1459 2.51115 28.1454C6.27605 28.1389 10.0411 28.1389 13.8062 28.1454C14.0031 28.1454 14.0525 28.0795 14.0521 27.865C14.0467 23.8625 14.0467 19.8598 14.0521 15.8569C14.0521 15.6536 14.0069 15.5891 13.8177 15.5924C12.8255 15.6111 11.8326 15.6172 10.8409 15.6223C10.0329 15.6265 9.5869 15.1325 9.58521 14.2361C9.5831 13.1771 9.57846 12.118 9.58944 11.058C9.59197 10.83 9.53073 10.7739 9.32969 10.7748C7.04896 10.7823 4.76823 10.7795 2.4875 10.7795H2.26196ZM12.7495 13.7019L12.7753 13.6477L11.3232 12.0946V13.7024L12.7495 13.7019Z" fill="#0461CC"/>
<path d="M23.1855 0.777832C23.5382 0.913836 23.8786 1.05825 24.1227 1.40831C24.3601 1.74668 24.4539 2.12291 24.4551 2.5384C24.4551 3.1614 24.4551 3.7844 24.4551 4.40787C24.4551 9.63396 24.4558 14.8601 24.4573 20.0861C24.4573 20.8073 24.2389 21.3948 23.6425 21.7252C23.4018 21.8513 23.1389 21.9167 22.8726 21.9168C20.9935 21.9322 19.1136 21.9229 17.2349 21.9285C17.066 21.9285 17.0187 21.8701 17.0238 21.6887C17.0331 21.1457 17.0271 20.6026 17.0271 20.0385H22.7243C22.7311 19.9305 22.7412 19.8417 22.7412 19.7524C22.7412 14.1602 22.7412 8.56743 22.7412 2.97399C22.7412 2.6716 22.7412 2.67113 22.4629 2.67113H11.2282C10.9469 2.67113 10.9469 2.67113 10.9473 2.99829C10.9473 4.31439 10.9473 5.63065 10.9473 6.94707C10.9473 7.03166 10.9473 7.11626 10.9473 7.21768H9.24311C9.24311 7.13261 9.24311 7.04288 9.24311 6.95315C9.24311 5.52768 9.26676 4.10221 9.23466 2.67768C9.21312 1.72191 9.69925 1.00591 10.4375 0.814754C10.4642 0.804952 10.4901 0.792598 10.5148 0.777832H23.1855Z" fill="#0461CC"/>
<path d="M23.6193 23.4591C23.8237 23.4965 23.8681 23.6494 23.8892 23.833C23.9906 24.7075 23.7857 25.4978 23.3562 26.2259C22.7649 27.2303 21.8822 27.8019 20.9002 28.2151C20.6126 28.3361 20.3089 28.4174 20.0132 28.5058C19.9047 28.5375 19.865 28.5932 19.8705 28.7151C19.8785 28.8857 19.8924 29.061 19.8671 29.2292C19.8468 29.3615 19.7987 29.5471 19.7129 29.5919C19.6272 29.6368 19.4523 29.5728 19.3637 29.4928C18.8737 29.0507 18.3986 28.5889 17.9179 28.1347C17.7684 27.9945 17.6223 27.85 17.4664 27.714C17.1019 27.3944 17.0724 26.9471 17.4136 26.5924C17.9661 26.0166 18.5278 25.452 19.0853 24.8827C19.1939 24.772 19.2914 24.6416 19.4148 24.5584C19.4992 24.5018 19.6395 24.4649 19.718 24.5056C19.7966 24.5462 19.8654 24.6925 19.8751 24.7972C19.8945 25.0533 19.896 25.3106 19.8793 25.567C19.8692 25.7595 19.9393 25.839 20.1045 25.8427C20.3216 25.8474 20.5429 25.8894 20.7549 25.8558C21.3884 25.759 22.0131 25.6249 22.547 25.1776C23.0238 24.778 23.3287 24.2527 23.5513 23.654C23.5737 23.5853 23.5961 23.5227 23.6193 23.4591Z" fill="#0461CC"/>
<path d="M5.4685 5.78333C5.4685 5.7288 5.4685 5.67427 5.4685 5.61975C5.4685 5.17949 5.4685 5.14911 5.07528 5.13322C3.62449 5.07386 2.38276 5.66275 1.81469 7.2574C1.78639 7.33685 1.71374 7.39761 1.66137 7.46631C1.59759 7.38266 1.49454 7.30881 1.47596 7.2144C1.35812 6.61617 1.45273 6.03524 1.65588 5.4786C2.00137 4.53312 2.61167 3.84609 3.40064 3.3362C4.00071 2.94461 4.65345 2.66156 5.33419 2.49774C5.45371 2.46923 5.49679 2.40894 5.48919 2.27481C5.4741 2.10379 5.47509 1.9315 5.49215 1.7607C5.50904 1.63405 5.55086 1.44289 5.62604 1.41158C5.72064 1.37185 5.8879 1.42887 5.97744 1.50786C6.38924 1.871 6.78541 2.25564 7.18622 2.63421C7.43964 2.87117 7.69052 3.10672 7.93844 3.34881C8.24169 3.64466 8.24718 4.08352 7.95069 4.39057C7.30307 5.06016 6.65434 5.72771 6.00447 6.39324C5.89634 6.50401 5.77513 6.57738 5.62435 6.50634C5.47357 6.4353 5.46765 6.28528 5.47019 6.13245C5.47019 6.01701 5.4685 5.90017 5.4685 5.78333Z" fill="#0461CC"/>
<path d="M16.8679 6.8536C15.6156 6.8536 14.3633 6.85827 13.1115 6.85126C12.486 6.84752 12.0957 6.2979 12.2414 5.6506C12.2849 5.47312 12.3754 5.31411 12.5013 5.19401C12.6271 5.07391 12.7826 4.99821 12.9476 4.97665C13.0457 4.96416 13.1445 4.95901 13.2432 4.96123C15.6701 4.96123 18.0971 4.96201 20.5243 4.96357C20.6854 4.95884 20.8462 4.9825 21.0007 5.03367C21.3926 5.18089 21.5962 5.59171 21.5383 6.0731C21.4923 6.46568 21.1506 6.82088 20.7709 6.84425C20.433 6.86341 20.0951 6.85407 19.7573 6.85453C18.7948 6.85391 17.8317 6.8536 16.8679 6.8536Z" fill="#0461CC"/>
<path d="M12.8479 8.66464C12.9844 8.65296 13.0874 8.6366 13.1905 8.6366C15.6531 8.6366 18.1157 8.6366 20.5784 8.6366C21.2001 8.6366 21.5709 9.02779 21.5447 9.64564C21.5347 9.84079 21.469 10.0274 21.3571 10.1786C21.2451 10.3298 21.0927 10.4377 20.9217 10.4869C20.8125 10.5161 20.7005 10.5309 20.5881 10.5308C18.632 10.5333 16.6759 10.5325 14.7198 10.5285C14.6303 10.5285 14.5167 10.4967 14.4559 10.4318C13.949 9.89241 13.4523 9.34232 12.9531 8.79597C12.9248 8.76513 12.8999 8.72961 12.8479 8.66464Z" fill="#0461CC"/>
<path d="M16.2107 12.3218C16.2715 12.318 16.3328 12.311 16.3936 12.3106C17.7941 12.3106 19.1947 12.3138 20.5952 12.3073C20.8858 12.3073 21.1375 12.383 21.3343 12.6256C21.5628 12.906 21.6123 13.2397 21.4944 13.5837C21.3631 13.9674 21.097 14.1847 20.7181 14.1889C20.0424 14.1964 19.3666 14.1927 18.6908 14.1931H17.0246C17.0246 13.9758 17.0132 13.7688 17.028 13.564C17.0428 13.3593 16.976 13.2243 16.8472 13.0967C16.6183 12.8677 16.3983 12.6293 16.1744 12.3928L16.2107 12.3218Z" fill="#0461CC"/>
<path d="M17.0255 15.9715H17.8812C18.7462 15.9715 19.6128 15.9658 20.4761 15.9715C21.1709 15.9775 21.5857 16.6258 21.3284 17.3044C21.1819 17.6909 20.8858 17.8652 20.523 17.8652C19.4118 17.875 18.301 17.8713 17.1898 17.8652C17.1349 17.8652 17.0335 17.7904 17.0327 17.7488C17.0221 17.1707 17.0255 16.5888 17.0255 15.9715Z" fill="#0461CC"/>
<path d="M8.16018 20.1679C9.3991 20.1679 10.6372 20.1679 11.8744 20.1679C12.339 20.1679 12.6194 20.3708 12.766 20.7975C12.9092 21.2148 12.8103 21.6453 12.4936 21.9612C12.3086 22.1458 12.0801 22.1762 11.8431 22.1762C10.6825 22.1762 9.52172 22.1762 8.3608 22.1762C7.05234 22.1762 5.74388 22.1762 4.43542 22.1762C4.07557 22.1762 3.79724 22.0304 3.61689 21.6729C3.42978 21.3022 3.44372 20.9428 3.6511 20.5928C3.83229 20.2871 4.09669 20.1642 4.42401 20.1656C5.66954 20.1707 6.91508 20.1679 8.16018 20.1679Z" fill="#0461CC"/>
<path d="M8.15217 25.7245C6.91424 25.7245 5.67631 25.7268 4.43838 25.7245C3.91508 25.7245 3.57086 25.4225 3.49737 24.9211C3.46464 24.6764 3.5203 24.4273 3.6523 24.2277C3.78431 24.0281 3.98205 23.894 4.20271 23.8545C4.29322 23.8401 4.38453 23.8328 4.47597 23.8326C6.93071 23.8326 9.38545 23.8326 11.8402 23.8326C12.0907 23.8326 12.3293 23.8657 12.5295 24.0606C12.8082 24.3322 12.8868 24.6682 12.7896 25.0529C12.6959 25.4267 12.4615 25.6413 12.1173 25.7039C12.0194 25.72 11.9205 25.7274 11.8216 25.7259C10.599 25.7255 9.37588 25.7251 8.15217 25.7245Z" fill="#0461CC"/>
<path d="M8.14964 18.5013C6.90453 18.5013 5.65773 18.4976 4.41431 18.5013C4.06037 18.5013 3.78458 18.3662 3.6055 18.0232C3.53288 17.8869 3.4929 17.7324 3.48935 17.5742C3.48579 17.416 3.51877 17.2595 3.58517 17.1194C3.65157 16.9792 3.74919 16.8602 3.86878 16.7735C3.98838 16.6868 4.12599 16.6353 4.2686 16.6239C4.32477 16.6188 4.38094 16.6183 4.43754 16.6183C6.92072 16.6183 9.40376 16.6183 11.8867 16.6183C12.3546 16.6183 12.6384 16.8122 12.7736 17.216C12.981 17.8306 12.6021 18.4859 12.0108 18.492C10.7235 18.505 9.43445 18.4962 8.14921 18.4962L8.14964 18.5013Z" fill="#0461CC"/>
<path d="M5.56988 12.9387C5.95676 12.9387 6.34364 12.928 6.73009 12.942C7.0853 12.9551 7.36743 13.1219 7.52075 13.4972C7.66942 13.8613 7.61324 14.1983 7.39108 14.5011C7.21538 14.7409 6.96873 14.8343 6.69884 14.8367C5.93226 14.8437 5.16568 14.847 4.39953 14.8367C3.95183 14.8301 3.65407 14.5876 3.52778 14.1679C3.41839 13.8043 3.51976 13.3668 3.82343 13.1532C4.00889 13.0323 4.21762 12.9619 4.43247 12.9476C4.81006 12.9153 5.19271 12.9387 5.57284 12.9387H5.56988Z" fill="#0461CC"/>
</svg>
