<svg width="33" height="32" viewBox="0 0 33 32" fill="none" xmlns="http://www.w3.org/2000/svg">
<path d="M28.7922 13.9345V28.8002C28.7722 28.8578 28.7567 28.9168 28.7456 28.9768C28.7013 29.3707 28.6256 29.7499 28.4319 30.1061C28.0422 30.8229 27.4841 31.3179 26.7007 31.5368C26.5066 31.5907 26.3069 31.6247 26.1098 31.6677H8.11579C8.08189 31.6568 8.04873 31.6439 8.01446 31.6349C7.73616 31.5594 7.4385 31.5292 7.18256 31.4085C6.36482 31.0187 5.81531 30.3792 5.59253 29.479C5.53739 29.2564 5.51057 29.0262 5.4707 28.7998C5.4707 23.832 5.4707 18.8642 5.4707 13.8964C5.49259 13.8267 5.50842 13.7553 5.51802 13.6828C5.54555 13.1967 5.70672 12.7281 5.98333 12.3298C6.34148 11.7873 6.87182 11.3849 7.48656 11.1892C8.04538 11.0074 8.62394 11.0357 9.20027 11.0417C9.42864 11.044 9.65702 11.0417 9.90811 11.0417C9.90811 10.9542 9.90811 10.8806 9.90811 10.807C9.90811 9.86376 9.90029 8.92051 9.91147 7.97725C9.91705 7.48185 9.9327 6.98419 9.98598 6.49181C10.0791 5.60024 10.3738 4.7649 10.803 3.9869C11.261 3.15642 11.8763 2.42559 12.6136 1.83627C13.3056 1.27375 14.0973 0.850019 14.9461 0.587778C15.9771 0.271525 17.0649 0.192633 18.1299 0.356868C19.518 0.564385 20.7332 1.14354 21.7853 2.07737C22.4918 2.70362 23.0675 3.46665 23.4785 4.32156C23.9118 5.21389 24.1688 6.15412 24.1927 7.14568C24.2217 8.36474 24.2046 9.58531 24.2072 10.8055C24.2072 10.881 24.2072 10.953 24.2072 11.0474C24.3007 11.0474 24.3734 11.0474 24.446 11.0474C25.0101 11.0549 25.5752 11.0443 26.1381 11.0753C27.0695 11.1266 27.7773 11.6088 28.2989 12.3638C28.5746 12.7702 28.7297 13.2481 28.746 13.7409C28.7551 13.8068 28.7706 13.8716 28.7922 13.9345ZM17.118 29.1021C19.9116 29.1021 22.7057 29.1021 25.5003 29.1021C25.6671 29.1002 25.8336 29.0876 25.9988 29.0643C26.0737 29.0583 26.1441 29.026 26.1979 28.9729C26.2517 28.9199 26.2855 28.8494 26.2935 28.7738C26.323 28.5957 26.3391 28.4156 26.3415 28.235C26.344 23.6319 26.344 19.0295 26.3415 14.4276C26.3392 14.247 26.323 14.0669 26.2931 13.8888C26.2853 13.813 26.2515 13.7423 26.1976 13.6891C26.1437 13.6359 26.0731 13.6035 25.9981 13.5976C25.8328 13.5745 25.6664 13.5619 25.4996 13.5598C19.9245 13.5578 14.3496 13.5578 8.77482 13.5598C8.596 13.5598 8.41718 13.5802 8.23873 13.5976C8.16705 13.6015 8.09875 13.6297 8.04473 13.6775C7.9907 13.7254 7.95408 13.7902 7.94069 13.8617C7.90327 14.0195 7.88341 14.1811 7.88146 14.3435C7.87848 19.0024 7.87848 23.6613 7.88146 28.3203C7.88146 28.481 7.88779 28.6546 7.9474 28.7983C8.00459 28.9165 8.1039 29.0083 8.22532 29.0553C8.3721 29.107 8.54198 29.1017 8.70218 29.1021C11.5067 29.1038 14.312 29.1039 17.118 29.1024V29.1021ZM21.8628 11.0342C21.8673 10.9719 21.8732 10.9285 21.8732 10.8855C21.8732 9.72869 21.8732 8.57188 21.8699 7.41431C21.8654 6.37485 21.5346 5.44706 20.9255 4.61435C20.2832 3.73524 19.4371 3.15457 18.41 2.8365C17.8266 2.65577 17.2305 2.63578 16.6248 2.67087C15.9139 2.71199 15.2627 2.93875 14.6551 3.2904C13.9107 3.71568 13.2955 4.33927 12.8762 5.09353C12.5156 5.7372 12.2693 6.42125 12.2544 7.16152C12.2291 8.39342 12.2421 9.62569 12.2399 10.8591C12.2399 10.9142 12.2481 10.9689 12.2533 11.0349L21.8628 11.0342Z" fill="#0461CC"/>
<path d="M15.9765 23.0595C15.9765 22.8143 15.9862 22.5691 15.9709 22.3242C15.9661 22.2438 15.9184 22.1355 15.8555 22.094C15.2676 21.7001 14.9122 21.1478 14.8041 20.4524C14.695 19.7498 14.8615 19.0964 15.3186 18.5504C16.0198 17.7132 16.9262 17.4777 17.9358 17.8049C18.8139 18.0893 19.426 18.8613 19.5135 19.8517C19.5955 20.795 19.23 21.5383 18.4618 22.0778C18.4172 22.1047 18.3808 22.1437 18.3568 22.1903C18.3328 22.237 18.3221 22.2895 18.3258 22.3419C18.3325 22.7819 18.3307 23.2222 18.3281 23.6625C18.3236 24.3794 17.9183 24.8581 17.2171 24.9321C16.7492 24.9815 16.174 24.6789 16.0369 24.0707C15.9624 23.7455 15.9773 23.3991 15.9516 23.0626L15.9765 23.0595Z" fill="#0461CC"/>
</svg>
