<svg width="32" height="32" viewBox="0 0 32 32" fill="none" xmlns="http://www.w3.org/2000/svg">
<path d="M0.552734 7.40606C0.657644 6.96177 0.723997 6.51036 0.873739 6.08383C1.7426 3.61532 3.90266 2.08515 6.57023 2.07805C11.0452 2.06383 15.5204 2.06383 19.9959 2.07805C22.9262 2.08693 25.2728 3.95387 25.8852 6.74317C25.968 7.12905 26.0095 7.5225 26.0089 7.91701C26.0152 11.076 26.0394 14.2358 25.9919 17.3939C25.9542 19.9059 24.0793 22.1718 21.6153 22.7645C21.0595 22.8936 20.4906 22.9592 19.9197 22.96C17.2737 22.9796 14.6294 22.9716 11.9807 22.96C11.8807 22.956 11.781 22.9724 11.6877 23.0082C11.5944 23.044 11.5094 23.0983 11.4382 23.168C10.0573 24.4345 8.67051 25.6945 7.27769 26.948C6.51553 27.6367 5.4503 27.4936 5.03604 26.629C4.93175 26.3778 4.88048 26.108 4.8854 25.8364C4.86836 24.8954 4.87285 23.9535 4.8854 23.0116C4.8854 22.8179 4.82264 22.7308 4.63792 22.665C2.32543 21.8395 0.975958 20.224 0.602947 17.8106C0.59154 17.7638 0.57469 17.7185 0.552734 17.6756V7.40606ZM6.78005 24.8056C6.86971 24.7372 6.90558 24.7168 6.93517 24.6901C8.26312 23.5039 9.58839 22.314 10.9226 21.1357C11.0394 21.036 11.1865 20.9778 11.3405 20.9705C14.1703 20.9607 17.0002 20.9705 19.8301 20.9509C20.3193 20.9418 20.8038 20.8542 21.2647 20.6914C22.789 20.1583 24.0399 18.5331 24.0022 16.8243C23.9377 13.8795 23.9475 10.9311 24.0022 7.98543C24.0345 6.1016 22.1865 4.01252 19.9932 4.00452C15.5386 3.98764 11.084 3.99652 6.63299 4.00452C6.30681 4.00745 5.98221 4.04983 5.66639 4.1307C3.93404 4.56522 2.52808 6.26333 2.52808 7.93033C2.52001 10.9578 2.51104 13.9852 2.52808 17.0127C2.53974 18.8645 4.14207 20.7448 6.40793 20.9518C6.69397 20.9776 6.77556 21.0576 6.77377 21.3241C6.7648 22.3469 6.77377 23.3679 6.77377 24.3916C6.75942 24.5097 6.77108 24.6279 6.78005 24.8056Z" fill="#0461CC"/>
<path d="M27.1091 5.88123C28.9823 6.28821 30.3712 7.28877 31.2688 8.93533C31.7244 9.77558 31.9576 10.7166 31.9466 11.6704C31.9407 14.7082 31.9407 17.7461 31.9466 20.7839C31.9466 23.6869 29.9274 26.079 27.041 26.5935C26.772 26.6415 26.503 26.6664 26.1793 26.7081C26.1793 26.9018 26.1793 27.1 26.1793 27.2982C26.1793 27.7131 26.1793 28.1281 26.1793 28.5422C26.173 29.0505 26.0197 29.4939 25.5131 29.7089C24.9751 29.9373 24.4299 29.9604 23.952 29.5721C23.5342 29.2317 23.145 28.8612 22.7433 28.4969C22.1542 27.9637 21.5624 27.4359 20.9832 26.8974C20.911 26.8278 20.825 26.7738 20.7307 26.7388C20.6364 26.7038 20.5358 26.6885 20.4353 26.6939C19.24 26.6939 18.0421 26.7303 16.8487 26.6566C14.9737 26.5402 13.6933 25.4881 12.7348 23.9019C12.854 23.8922 12.9293 23.8806 13.0038 23.8806C13.4019 23.8806 13.8018 23.8966 14.199 23.8762C14.8186 23.8442 15.3952 23.8851 15.9224 24.2911C16.2595 24.5506 16.6953 24.6164 17.1419 24.611C18.3972 24.595 19.6525 24.5995 20.9078 24.6182C21.1044 24.6254 21.2933 24.6959 21.4458 24.819C22.3425 25.5912 23.2132 26.3838 24.0937 27.1702C24.1977 27.2591 24.3044 27.3532 24.4523 27.4803V24.6075C24.8415 24.6075 25.2046 24.6075 25.5669 24.6075C26.1147 24.6004 26.6644 24.6537 27.1979 24.4387C28.9016 23.75 30.0081 22.1843 29.9946 20.5217C29.9713 17.6667 29.9883 14.8107 29.9874 11.9557C29.9874 10.0772 29.0397 8.80827 27.3728 8.02541C27.1585 7.925 27.0948 7.82548 27.1038 7.60511C27.119 7.03907 27.1091 6.47392 27.1091 5.88123Z" fill="#0461CC"/>
<path d="M13.1876 17.1229C11.1333 17.1229 9.07908 17.1229 7.02483 17.1229C6.86016 17.1309 6.69712 17.0873 6.55885 16.9983C6.42059 16.9093 6.31413 16.7794 6.2546 16.627C6.12459 16.3462 6.18915 16.0725 6.38282 15.8326C6.56036 15.6211 6.78991 15.5518 7.0616 15.5518C8.58592 15.5563 10.1102 15.5518 11.6301 15.5518C14.2053 15.5518 16.7808 15.5518 19.3566 15.5518C19.8623 15.5518 20.2156 15.8548 20.2309 16.292C20.2369 16.4007 20.22 16.5095 20.1812 16.6113C20.1424 16.7131 20.0825 16.8058 20.0054 16.8834C19.9284 16.9609 19.8358 17.0217 19.7336 17.0617C19.6314 17.1017 19.522 17.1201 19.4122 17.1157C17.7384 17.1157 16.0623 17.1157 14.3837 17.1157L13.1876 17.1229Z" fill="#0461CC"/>
<path d="M13.2163 9.77595H7.08492C6.53706 9.77595 6.19812 9.47471 6.19991 8.99398C6.19991 8.52836 6.54154 8.21824 7.06429 8.21824C11.162 8.21824 15.2598 8.21824 19.3575 8.21824C19.7951 8.21824 20.1269 8.45016 20.2174 8.80827C20.2535 8.97209 20.2368 9.14303 20.1695 9.29691C20.1023 9.45079 19.9879 9.57982 19.8426 9.66576C19.688 9.73929 19.5182 9.77582 19.3468 9.77239C17.3033 9.77595 15.258 9.77595 13.2163 9.77595Z" fill="#0461CC"/>
<path d="M13.2046 13.6111C11.1423 13.6111 9.07998 13.6067 7.01766 13.6111C6.85871 13.6209 6.70067 13.5809 6.56585 13.4969C6.43104 13.4129 6.32624 13.289 6.26626 13.1428C6.1973 13.0175 6.17121 12.8733 6.1919 12.732C6.2126 12.5907 6.27896 12.4599 6.38103 12.3591C6.52966 12.2146 6.71922 12.1185 6.92441 12.0836C7.2768 12.0401 7.64174 12.0694 7.99592 12.0694H19.3369C19.8749 12.0694 20.2192 12.3546 20.2336 12.8114C20.2443 13.2823 19.9081 13.6111 19.3988 13.6111C17.3962 13.6111 15.3937 13.6111 13.3911 13.6111H13.2046Z" fill="#0461CC"/>
</svg>
