<svg width="34" height="32" viewBox="0 0 34 32" fill="none" xmlns="http://www.w3.org/2000/svg">
<path d="M4.62109 2.95605H26.0694V15.1231C26.2609 15.1608 26.4114 15.1957 26.5619 15.2185C27.9507 15.4275 28.7665 16.3037 28.8084 17.7406C28.852 19.2272 28.8315 20.7139 28.8341 22.2006C28.8369 23.9782 28.8369 25.7563 28.8341 27.5351V28.0686H7.92201V21.577H4.62109V2.95605ZM5.64729 9.3295H25.0252V7.21668H5.649L5.64729 9.3295ZM25.0329 10.4436H11.795C11.795 11.2412 11.795 12.0108 11.795 12.7795C11.795 13.5482 11.795 14.3413 11.795 15.131H13.8953C14.033 13.8105 14.8668 13.0952 15.9477 12.6011C16.851 12.1939 17.8402 12.0264 18.8236 12.1139C19.9216 12.2014 20.9487 12.5022 21.8286 13.2211C22.4332 13.7143 22.7907 14.3483 22.8651 15.1284H25.0389L25.0329 10.4436ZM5.64729 20.4848H7.90149C7.90149 20.2889 7.90149 20.1184 7.90149 19.9478C7.91774 19.2054 7.89721 18.4612 7.9622 17.7213C8.08791 16.3064 8.92426 15.4345 10.2857 15.2202C10.4379 15.1966 10.5875 15.1608 10.7406 15.1328V10.4489H5.64729V20.4848ZM5.66524 4.02121V6.10605H18.5833V4.02121H5.66524ZM14.4554 22.0545C14.4554 21.6767 14.4631 21.299 14.4554 20.9177C14.4418 20.4026 14.1134 20.051 13.6473 20.03C13.5332 20.0211 13.4185 20.0364 13.3104 20.075C13.2023 20.1137 13.1033 20.1747 13.0194 20.2544C12.9355 20.3341 12.8687 20.4306 12.8231 20.538C12.7775 20.6454 12.7542 20.7613 12.7545 20.8783C12.7311 21.6619 12.7311 22.4457 12.7545 23.2299C12.7541 23.3469 12.7775 23.4628 12.8233 23.5701C12.869 23.6774 12.9361 23.7738 13.0202 23.8531C13.1043 23.9325 13.2036 23.9931 13.3119 24.0311C13.4202 24.0691 13.535 24.0836 13.649 24.0738C14.1151 24.0519 14.4418 23.6986 14.4554 23.1835C14.4648 22.811 14.4563 22.4332 14.4554 22.0545ZM22.2955 22.0117C22.2955 22.4201 22.2836 22.8285 22.2955 23.236C22.3135 23.7109 22.6282 24.0432 23.0652 24.0773C23.5312 24.114 23.94 23.8333 23.9648 23.3462C24.0074 22.4886 24.0074 21.6293 23.9648 20.7716C23.9409 20.288 23.5295 20.0012 23.0669 20.037C22.6342 20.0703 22.3178 20.4026 22.2972 20.8766C22.2836 21.2544 22.2955 21.6339 22.2955 22.0126V22.0117ZM20.6622 15.1389L20.7622 15.0322C20.6143 14.8171 20.5006 14.5617 20.3133 14.3921C19.3957 13.5613 17.2997 13.5796 16.4043 14.4262C16.2282 14.5932 16.1324 14.8494 15.9528 15.1389H20.6622ZM22.8856 4.02471V6.10605H25.0295V4.02558L22.8856 4.02471ZM19.6856 4.01596V6.10168H21.7936V4.01771L19.6856 4.01596Z" fill="#0461CC"/>
<path d="M9.13631 12.6378V13.6216H7.26693V12.6378H9.13631Z" fill="#0461CC"/>
</svg>
