<svg width="36" height="32" viewBox="0 0 36 32" fill="none" xmlns="http://www.w3.org/2000/svg">
<path d="M26.7508 21.4329H29.6708C30.5374 21.4329 31.1641 21.5395 31.5508 21.7529C31.9374 21.9595 32.1308 22.3095 32.1308 22.8029V23.9429C32.1308 24.3229 31.9941 24.6229 31.7208 24.8429C31.4541 25.0562 31.0974 25.1929 30.6508 25.2529L32.5308 27.9229H30.7308L29.0308 25.3729H28.3108V27.9229H26.7508V21.4329ZM29.6508 24.3429C30.0174 24.3429 30.2674 24.2962 30.4008 24.2029C30.5341 24.1029 30.6008 23.9129 30.6008 23.6329V23.1729C30.6008 22.9329 30.5274 22.7695 30.3808 22.6829C30.2408 22.5895 29.9974 22.5429 29.6508 22.5429H28.3108V24.3429H29.6508Z" fill="#0461CC"/>
<path d="M16.2168 5.17187C19.3725 5.17187 22.5277 5.16714 25.6858 5.17471C26.6196 5.17471 27.3682 5.54576 27.8093 6.41455C28.0906 6.96806 28.0587 7.54899 27.9237 8.13842C26.9861 12.2413 26.0519 16.3451 25.1209 20.4499C24.827 21.7413 24.55 23.0374 24.2303 24.3217C23.9401 25.4835 23.2042 26.2597 22.0688 26.6265C21.858 26.6874 21.6393 26.7157 21.42 26.7101C15.8039 26.7234 10.1878 26.7338 4.57172 26.7413C3.89999 26.7413 3.22825 26.7413 2.55604 26.7512C1.13006 26.7692 0.290971 25.6934 0.411912 24.3878C0.484102 23.6122 0.689421 22.8469 0.860988 22.0826C1.58507 18.8642 2.31369 15.6467 3.04684 12.4299C3.45153 10.6492 3.85577 8.86856 4.25953 7.08812C4.37216 6.61536 4.6238 6.18793 4.98148 5.86184C5.33915 5.53576 5.78617 5.32624 6.26396 5.26073C6.47233 5.23236 6.68231 5.21767 6.89258 5.21677C10.0014 5.21394 13.1109 5.21394 16.221 5.21677L16.2168 5.17187ZM16.161 6.83949V6.87116C13.2859 6.87116 10.4108 6.87211 7.53572 6.874C7.33351 6.87264 7.13188 6.89597 6.93523 6.94348C6.27896 7.11034 6.0188 7.62462 5.88005 8.2306C5.74129 8.83658 5.6091 9.44161 5.47269 10.0471C4.81579 12.9673 4.15781 15.8876 3.49872 18.8078C3.12371 20.4712 2.74073 22.1331 2.36853 23.7975C2.1979 24.5604 2.52885 25.0047 3.29809 25.0666C3.43872 25.0779 3.57935 25.0765 3.71998 25.0761C6.14162 25.071 8.56356 25.0658 10.9858 25.0605C14.2512 25.0567 17.517 25.0549 20.783 25.0553C21.4205 25.0553 21.9549 24.8426 22.2774 24.2616C22.4326 23.9797 22.5483 23.6775 22.621 23.3635C23.7773 18.3074 24.9264 13.2497 26.0683 8.19042C26.2136 7.54852 25.9624 7.08103 25.3652 6.90141C25.1995 6.85727 25.0283 6.83721 24.857 6.84186C21.9594 6.83839 19.0614 6.8376 16.1629 6.83949H16.161Z" fill="#0461CC"/>
<path d="M14.3567 15.5473L11.2666 12.2073C10.6863 11.5805 10.1061 10.952 9.52606 10.3218C9.06949 9.82591 9.07417 9.24215 9.53591 8.80019C9.96295 8.39132 10.6792 8.40834 11.1016 8.85077C12.3588 10.1658 13.6137 11.4831 14.8662 12.8029C15.5206 13.4901 16.1745 14.1777 16.828 14.8657C16.91 14.9497 16.985 15.0404 17.0521 15.137C17.3802 15.6215 17.3033 16.0871 16.8336 16.4354C14.8401 17.9143 12.8452 19.3913 10.8489 20.8664C9.91139 21.5596 8.97386 22.2529 8.03633 22.9462C7.60601 23.2629 7.14568 23.269 6.75848 22.9755C6.34409 22.6607 6.14252 22.1067 6.34034 21.6576C6.44887 21.4246 6.61358 21.2228 6.81942 21.0706C9.2523 19.2775 11.691 17.4922 14.1354 15.7146C14.201 15.6678 14.269 15.6158 14.3567 15.5473Z" fill="#0461CC"/>
<path d="M16.2805 20.8016C17.0459 20.8016 17.8114 20.7936 18.5774 20.8016C19.3743 20.8125 19.8984 21.625 19.5482 22.3038C19.3419 22.7037 19.0054 22.9466 18.5554 22.9495C17.0084 22.9599 15.4615 22.9613 13.9146 22.9452C13.3343 22.9391 12.9508 22.5704 12.8922 22.0381C12.8304 21.4738 13.1421 20.976 13.6596 20.8399C13.8121 20.8074 13.9679 20.7939 14.1237 20.7997C14.8423 20.7959 15.5609 20.7997 16.28 20.7997L16.2805 20.8016Z" fill="#0461CC"/>
</svg>
