<svg width="37" height="32" viewBox="0 0 37 32" fill="none" xmlns="http://www.w3.org/2000/svg">
<path d="M8.101 24.5142C8.101 25.3319 8.101 26.1496 8.101 26.9673C8.101 27.4896 7.89901 27.7193 7.37524 27.7234C5.70365 27.7354 4.03414 27.7354 2.36672 27.7234C1.87917 27.7234 1.64723 27.4695 1.64584 26.9846C1.64027 25.3377 1.64027 23.6908 1.64584 22.0438C1.64584 21.4904 1.88056 21.2697 2.43219 21.269C4.0671 21.269 5.70202 21.269 7.33694 21.269C7.86767 21.269 8.09891 21.5001 8.10309 22.0245C8.10518 22.8539 8.10169 23.6841 8.101 24.5142Z" fill="#0461CC"/>
<path d="M15.6907 24.4865C15.6907 25.2925 15.6907 26.0991 15.6907 26.9078C15.6907 27.4917 15.4637 27.7255 14.8751 27.7276C13.2751 27.7331 11.675 27.7331 10.0749 27.7276C9.4327 27.7276 9.22654 27.509 9.22654 26.8705C9.22654 25.2927 9.22654 23.715 9.22654 22.1372C9.22654 21.4786 9.43549 21.2677 10.0958 21.2677C11.6843 21.2677 13.2727 21.2677 14.8612 21.2677C15.4741 21.2677 15.6894 21.4849 15.6907 22.104C15.6928 22.8975 15.6907 23.6924 15.6907 24.4865Z" fill="#0461CC"/>
<path d="M12.4604 13.7915C13.2962 13.7915 14.132 13.7915 14.9678 13.7915C15.4393 13.7915 15.6852 14.0156 15.688 14.4833C15.6968 16.1666 15.6968 17.85 15.688 19.5333C15.688 20.0003 15.4393 20.2251 14.9664 20.2251C13.3064 20.2279 11.6464 20.2279 9.98642 20.2251C9.45151 20.2251 9.22793 19.9996 9.22724 19.4642C9.22445 17.8385 9.22445 16.2128 9.22724 14.587C9.22724 14.0163 9.4522 13.7943 10.0233 13.7915C10.8355 13.788 11.6476 13.7915 12.4604 13.7915Z" fill="#0461CC"/>
<path d="M16.8156 24.4796C16.8156 23.6612 16.8156 22.8429 16.8156 22.0238C16.8156 21.5015 17.0524 21.2677 17.5817 21.267C19.2185 21.2647 20.8551 21.2647 22.4914 21.267C23.0242 21.267 23.2666 21.489 23.2694 22.0189C23.2773 23.6792 23.2773 25.3395 23.2694 26.9998C23.2694 27.4723 23.0374 27.7158 22.5666 27.7193C20.8839 27.7322 19.2009 27.7322 17.5177 27.7193C17.0252 27.7158 16.817 27.4647 16.8156 26.9694C16.8128 26.1397 16.8128 25.3098 16.8156 24.4796Z" fill="#0461CC"/>
<path d="M24.3845 9.48096C24.2723 9.66428 24.2089 9.83169 24.0926 9.94791C22.9109 11.1359 21.7231 12.318 20.5293 13.494C20.1309 13.8842 19.8328 13.8434 19.431 13.4387C18.3117 12.3194 17.1917 11.1994 16.0585 10.0939C15.635 9.67881 15.5236 9.32876 16.0543 8.82583C17.2112 7.72865 18.3235 6.58444 19.4546 5.46097C19.8412 5.07495 20.1079 5.07495 20.4903 5.45267C21.6739 6.62225 22.8552 7.79437 24.0341 8.96903C24.1741 9.10946 24.264 9.29971 24.3845 9.48096Z" fill="#0461CC"/>
<path d="M8.101 9.51969C8.101 10.3498 8.101 11.18 8.101 12.0101C8.101 12.5138 7.86558 12.751 7.35644 12.7517C5.71038 12.7559 4.06409 12.7559 2.41756 12.7517C1.89867 12.7517 1.65141 12.5089 1.64584 11.9908C1.64027 10.3558 1.64027 8.72068 1.64584 7.08529C1.64584 6.51456 1.8722 6.29458 2.45448 6.29319C4.06571 6.28812 5.67718 6.28812 7.28888 6.29319C7.91085 6.29319 8.1003 6.49519 8.10169 7.10258C8.10401 7.90783 8.10378 8.71353 8.101 9.51969Z" fill="#0461CC"/>
<path d="M8.101 17.009C8.101 17.8391 8.101 18.6693 8.101 19.496C8.101 19.9934 7.88091 20.2231 7.38848 20.2237C5.71921 20.2274 4.04993 20.2274 2.38066 20.2237C1.88893 20.2237 1.64933 20.0017 1.64724 19.5084C1.63842 17.8504 1.63842 16.1925 1.64724 14.5345C1.64863 13.999 1.87918 13.7915 2.41966 13.7915C4.05411 13.7915 5.68856 13.7915 7.32301 13.7915C7.89136 13.7915 8.10031 13.999 8.101 14.5573C8.10147 15.3745 8.10147 16.1918 8.101 17.009Z" fill="#0461CC"/>
<path d="M27.0613 21.4329H29.9813C30.848 21.4329 31.4747 21.5395 31.8613 21.7529C32.248 21.9595 32.4413 22.3095 32.4413 22.8029V23.9429C32.4413 24.3229 32.3047 24.6229 32.0313 24.8429C31.7647 25.0562 31.408 25.1929 30.9613 25.2529L32.8413 27.9229H31.0413L29.3413 25.3729H28.6213V27.9229H27.0613V21.4329ZM29.9613 24.3429C30.328 24.3429 30.578 24.2962 30.7113 24.2029C30.8447 24.1029 30.9113 23.9129 30.9113 23.6329V23.1729C30.9113 22.9329 30.838 22.7695 30.6913 22.6829C30.5513 22.5895 30.308 22.5429 29.9613 22.5429H28.6213V24.3429H29.9613Z" fill="#0461CC"/>
</svg>
