<svg width="40" height="32" viewBox="0 0 40 32" fill="none" xmlns="http://www.w3.org/2000/svg">
<path d="M30.2645 21.4329H33.1845C34.0511 21.4329 34.6778 21.5395 35.0645 21.7529C35.4511 21.9595 35.6445 22.3095 35.6445 22.8029V23.9429C35.6445 24.3229 35.5078 24.6229 35.2345 24.8429C34.9678 25.0562 34.6111 25.1929 34.1645 25.2529L36.0445 27.9229H34.2445L32.5445 25.3729H31.8245V27.9229H30.2645V21.4329ZM33.1645 24.3429C33.5311 24.3429 33.7811 24.2962 33.9145 24.2029C34.0478 24.1029 34.1145 23.9129 34.1145 23.6329V23.1729C34.1145 22.9329 34.0411 22.7695 33.8945 22.6829C33.7545 22.5895 33.5111 22.5429 33.1645 22.5429H31.8245V24.3429H33.1645Z" fill="#0461CC"/>
<path d="M16.9621 27.7149C14.2581 27.7149 11.5524 27.6653 8.85017 27.7315C6.77218 27.782 5.46817 25.8016 5.46548 24.2568C5.4601 19.0976 5.4595 13.9381 5.46368 8.77835C5.46368 7.12418 6.54797 5.66668 8.08965 5.26416C8.38018 5.19864 8.67747 5.16994 8.97483 5.1787C14.338 5.1741 19.702 5.18513 25.0651 5.17042C27.1279 5.16491 28.5467 6.75567 28.5682 8.73884C28.6229 13.8668 28.5942 18.9956 28.5799 24.1235C28.5754 25.8264 27.4929 27.2536 25.9611 27.6387C25.699 27.6944 25.4313 27.7181 25.1638 27.7094C22.4296 27.7155 19.6957 27.7174 16.9621 27.7149ZM17.0016 25.9238C19.6174 25.9238 22.2332 25.9238 24.849 25.9238C26.1279 25.9238 26.7431 25.3274 26.7458 24.0335C26.7542 18.9791 26.7542 13.9247 26.7458 8.87025C26.7458 7.55978 26.1369 6.96428 24.8624 6.96428H9.2125C7.99727 6.96428 7.2789 7.66087 7.27621 8.91528C7.26485 13.9391 7.26485 18.9628 7.27621 23.9866C7.27621 25.2677 7.95153 25.9211 9.19904 25.922C11.7999 25.9238 14.4007 25.9244 17.0016 25.9238Z" fill="#0461CC"/>
<path d="M10.6591 10.9132H14.0277V22.0595H10.6591V10.9132Z" fill="#0461CC"/>
<path d="M23.3047 13.728V22.065H19.9325V13.728H23.3047Z" fill="#0461CC"/>
<path d="M15.3039 22.0549C15.2922 21.9033 15.2725 21.77 15.2725 21.6377C15.2725 20.2316 15.2806 18.8247 15.2662 17.4186C15.2662 17.0832 15.3559 16.9647 15.694 16.972C16.6608 16.9941 17.6285 16.9794 18.6357 16.9794V22.0558L15.3039 22.0549Z" fill="#0461CC"/>
</svg>
