<svg width="32" height="32" viewBox="0 0 32 32" fill="none" xmlns="http://www.w3.org/2000/svg">
<path d="M24.301 28.6851C24.301 29.1814 24.0866 29.6574 23.7049 30.0084C23.3232 30.3593 22.8055 30.5565 22.2656 30.5565H3.94746C3.40765 30.5565 2.88995 30.3593 2.50825 30.0084C2.12655 29.6574 1.91211 29.1814 1.91211 28.6851V18.3927C1.91211 17.8964 2.12655 17.4204 2.50825 17.0695C2.88995 16.7185 3.40765 16.5214 3.94746 16.5214H8.01817L10.0535 13.7144H16.1596L18.1949 16.5214H22.2656C22.8055 16.5214 23.3232 16.7185 23.7049 17.0695C24.0866 17.4204 24.301 17.8964 24.301 18.3927V28.6851Z" stroke="#0461CC" stroke-width="2" stroke-linecap="round" stroke-linejoin="round"/>
<path d="M13.1063 27.1881C15.4842 27.1881 17.4119 25.303 17.4119 22.9776C17.4119 20.6522 15.4842 18.7671 13.1063 18.7671C10.7284 18.7671 8.80078 20.6522 8.80078 22.9776C8.80078 25.303 10.7284 27.1881 13.1063 27.1881Z" stroke="#0461CC" stroke-width="2" stroke-linecap="round" stroke-linejoin="round"/>
<path d="M6.4707 13.3486V1.82861H30.1766V21.0286H26.79" stroke="#0461CC" stroke-width="2" stroke-linecap="square" stroke-dasharray="3 3"/>
</svg>
