<svg width="37" height="32" viewBox="0 0 37 32" fill="none" xmlns="http://www.w3.org/2000/svg">
<path d="M13.7031 29.2173H24.6661" stroke="#0461CC" stroke-width="2" stroke-linecap="round" stroke-linejoin="round"/>
<path d="M19.1855 23.6523V29.2176" stroke="#0461CC" stroke-width="2" stroke-linecap="round" stroke-linejoin="round"/>
<path d="M31.1069 2.78271H5.89209C4.15137 2.78271 2.74023 4.11752 2.74023 5.76408V20.6709C2.74023 22.3175 4.15137 23.6523 5.89209 23.6523H31.1069C32.8476 23.6523 34.2588 22.3175 34.2588 20.6709V5.76408C34.2588 4.11752 32.8476 2.78271 31.1069 2.78271Z" stroke="#0461CC" stroke-width="2" stroke-linecap="round" stroke-linejoin="round"/>
<path d="M24.5221 8.66257C24.4895 8.75934 24.4492 8.85328 24.4018 8.94347C24.1726 9.30138 23.9443 9.66026 23.6984 10.0061C23.6004 10.1441 23.6033 10.2434 23.6708 10.3935C23.8406 10.766 23.9923 11.1481 24.1264 11.5351C24.1854 11.7055 24.2738 11.7772 24.4417 11.8029C24.7932 11.861 25.1441 11.9293 25.4908 12.0126C25.8855 12.1095 26.0044 12.2339 26.0239 12.6422C26.0453 13.0926 26.0387 13.5455 26.0163 13.9983C26.0011 14.3083 25.8893 14.4284 25.5883 14.4967C25.2174 14.5809 24.8421 14.6458 24.4679 14.7127C24.2629 14.749 24.1445 14.8425 24.0741 15.0628C23.9536 15.4215 23.8073 15.7706 23.6366 16.1075C23.5562 16.2717 23.5748 16.3797 23.6775 16.5182C23.8877 16.801 24.0903 17.0911 24.2772 17.39C24.4945 17.7367 24.4888 17.9159 24.2192 18.2177C23.9359 18.5329 23.6368 18.8331 23.3232 19.117C23.0559 19.3592 22.87 19.3703 22.5689 19.1752C22.2555 18.9717 21.954 18.748 21.6549 18.5228C21.5455 18.4404 21.4585 18.4317 21.3315 18.4865C20.9308 18.6595 20.5256 18.8219 20.116 18.9737C19.9595 19.0313 19.8958 19.1238 19.8711 19.2861C19.813 19.6682 19.7408 20.0479 19.6675 20.4276C19.6152 20.7003 19.444 20.8586 19.1729 20.8635C18.6902 20.8737 18.2075 20.8708 17.7248 20.8601C17.459 20.8543 17.2992 20.6906 17.2493 20.4324C17.1736 20.0372 17.1066 19.6396 17.049 19.241C17.0262 19.088 16.9653 19.0081 16.8141 18.9553C16.4692 18.8372 16.1313 18.6988 15.8021 18.5407C15.6 18.4438 15.4445 18.4317 15.2609 18.5751C15.0098 18.7712 14.7445 18.949 14.4786 19.1243C14.0825 19.3858 13.8842 19.3795 13.547 19.0526C13.2383 18.7533 12.9487 18.4317 12.6648 18.1072C12.4912 17.9092 12.4926 17.6873 12.6482 17.4655C12.8603 17.1638 13.0595 16.8529 13.2745 16.5535C13.4038 16.3734 13.4352 16.2116 13.3268 15.998C13.1873 15.7169 13.0689 15.4255 12.9725 15.1263C12.8807 14.8502 12.7133 14.6976 12.4322 14.6541C12.1512 14.6105 11.8692 14.5606 11.591 14.4976C11.1087 14.3882 10.9547 14.191 10.9632 13.6883C10.9699 13.2849 10.9941 12.8819 11.0108 12.4775C11.0198 12.2189 11.1287 12.0581 11.395 12.0111C11.785 11.9424 12.1712 11.8518 12.5611 11.7801C12.7514 11.7448 12.8579 11.6537 12.9178 11.4527C13.0032 11.1422 13.122 10.8422 13.2721 10.5582C13.4357 10.2676 13.3972 10.055 13.1927 9.80798C12.9946 9.55608 12.8153 9.28944 12.6562 9.01031C12.4594 8.68388 12.466 8.57733 12.7138 8.30127C12.9749 8.01068 13.245 7.72493 13.5275 7.45468C13.8989 7.09919 14.0982 7.08757 14.5167 7.37234C14.802 7.56607 15.0697 7.77869 15.3589 7.96079C15.4078 7.98656 15.4612 8.00218 15.516 8.00676C15.5709 8.01133 15.6261 8.00476 15.6785 7.98743C16.086 7.83341 16.4869 7.66293 16.8855 7.4818C16.9265 7.45852 16.9624 7.42704 16.9912 7.38926C17.02 7.35147 17.0409 7.30816 17.0529 7.26192C17.1432 6.85316 17.2027 6.43858 17.2959 6.02933C17.38 5.66028 17.4666 5.58473 17.8323 5.57359C18.2908 5.55954 18.7506 5.56439 19.2091 5.58231C19.5182 5.59442 19.649 5.7155 19.7151 6.02836C19.7931 6.39838 19.8577 6.77228 19.9158 7.14617C19.9467 7.34329 20.0342 7.44887 20.2287 7.51764C20.6167 7.65519 20.9943 7.82421 21.37 7.99518C21.4206 8.02435 21.4787 8.03711 21.5366 8.03175C21.5945 8.02638 21.6493 8.00315 21.6939 7.96515C21.9907 7.75011 22.2884 7.53459 22.5975 7.33796C22.9589 7.10791 23.1453 7.12098 23.4487 7.41496C23.7522 7.70895 24.0475 8.03634 24.3376 8.35599C24.4137 8.44511 24.4603 8.55989 24.5221 8.66257ZM18.4933 16.9323C20.4527 16.9914 22.16 15.2086 22.1623 13.234C22.1623 11.2256 20.4746 9.5014 18.4876 9.49801C16.5378 9.49462 14.8491 11.2212 14.8524 13.2151C14.8562 15.2565 16.4979 16.9328 18.4933 16.9323Z" fill="#0461CC"/>
</svg>
