<svg width="37" height="32" viewBox="0 0 37 32" fill="none" xmlns="http://www.w3.org/2000/svg">
<path d="M19.9024 22.8294V24.7891H24.9398V26.7515H12.822V24.807H17.8576V22.837H5.79297V5.17041H31.972V22.8294H19.9024ZM29.9481 20.867V7.14143H7.82536V20.8663L29.9481 20.867Z" fill="#0461CC"/>
<path d="M26.3256 13.1457V15.1043H26.1187C24.8487 15.1043 23.5784 15.1064 22.3084 15.1009C22.1626 15.1009 22.0708 15.1395 21.9805 15.2608C20.8228 16.8123 19.6612 18.3608 18.4957 19.9065C18.4613 19.952 18.4268 19.9958 18.3654 20.0716L15.5779 12.649C15.4724 12.8575 15.3844 13.0281 15.2982 13.2005C15.0024 13.791 14.7051 14.3808 14.4134 14.9733C14.3672 15.0678 14.3151 15.1078 14.2065 15.1078C12.4767 15.1043 10.7468 15.1034 9.01699 15.105C8.97251 15.105 8.92803 15.0992 8.87286 15.095V13.1474C8.93699 13.1443 8.99768 13.1384 9.05837 13.1384C10.3401 13.1384 11.6214 13.1347 12.9031 13.1426C13.07 13.1426 13.1548 13.096 13.2297 12.9451C14.0618 11.2675 14.8986 9.59321 15.7399 7.92228C15.7651 7.8723 15.793 7.82404 15.8392 7.73958L18.9502 16.023C19.2078 15.681 19.4481 15.3618 19.6881 15.0423C20.1332 14.4498 20.5778 13.8571 21.0219 13.2639C21.0846 13.1798 21.1481 13.1353 21.2633 13.1357C22.8954 13.1398 24.5276 13.141 26.1597 13.1391C26.2087 13.1388 26.2594 13.1436 26.3256 13.1457Z" fill="#0461CC"/>
</svg>
