<svg width="32" height="32" viewBox="0 0 32 32" fill="none" xmlns="http://www.w3.org/2000/svg">
<path d="M20.7984 15.4259H15.2892C14.9479 15.4259 14.9176 15.4014 14.9176 15.0605C14.9176 12.4428 14.9176 9.825 14.9176 7.20725C14.9176 6.83853 14.9883 6.75664 15.3484 6.70684C17.9754 6.34387 20.6025 5.98106 23.2298 5.6184C24.2696 5.47474 25.3084 5.32438 26.3486 5.18408C26.6687 5.14098 26.7154 5.18695 26.7159 5.5097C26.7184 7.53622 26.7197 9.56339 26.7197 11.5912C26.7197 12.7404 26.712 13.8897 26.7197 15.039C26.7197 15.2784 26.6393 15.3742 26.403 15.3742C25.938 15.3713 25.473 15.3809 25.007 15.3813C23.6034 15.3813 22.1999 15.3813 20.7965 15.3813L20.7984 15.4259Z" fill="#0461CC"/>
<path d="M9.6956 16.5035C11.0641 16.5035 12.4325 16.5035 13.8005 16.5035C14.1881 16.5035 14.2432 16.5648 14.2432 16.934C14.2432 19.4998 14.2432 22.0663 14.2432 24.6335C14.2432 25.0008 14.224 25.028 13.8531 24.9793C12.3843 24.7851 10.9165 24.5818 9.44817 24.3834C8.14203 24.2067 6.83571 24.0314 5.52924 23.8573C5.20262 23.8138 5.13916 23.7497 5.13867 23.4293C5.13867 21.238 5.13867 19.0466 5.13867 16.855C5.13867 16.5318 5.21639 16.4519 5.5376 16.4514C6.92278 16.4514 8.30796 16.4514 9.69314 16.4514L9.6956 16.5035Z" fill="#0461CC"/>
<path d="M9.66508 15.4259C8.27999 15.4259 6.89473 15.4259 5.50931 15.4259C5.17411 15.4259 5.13867 15.3886 5.13867 15.0745C5.13867 12.8928 5.13867 10.7109 5.13867 8.52886C5.13867 8.13634 5.18789 8.0718 5.58167 8.01825C7.38285 7.77315 9.18435 7.52964 10.9862 7.28772C11.9435 7.15816 12.9004 7.02333 13.8578 6.89664C14.2082 6.84883 14.2432 6.88516 14.2432 7.22652C14.2432 9.79868 14.2432 12.3707 14.2432 14.9425C14.2432 15.3427 14.2245 15.3647 13.8159 15.3656C12.4308 15.3679 11.0456 15.3679 9.66016 15.3656L9.66508 15.4259Z" fill="#0461CC"/>
<path d="M16.1027 25.382C16.1311 25.3155 16.1637 25.2508 16.2003 25.1886C16.3628 24.94 16.5263 24.6913 16.6966 24.4512C16.7432 24.3941 16.7714 24.3237 16.7775 24.2497C16.7835 24.1757 16.767 24.1016 16.7302 24.0374C16.6255 23.8134 16.5325 23.5838 16.4516 23.3497C16.3804 23.1533 16.2599 23.0285 16.054 22.9932C15.848 22.9579 15.6543 22.9206 15.4548 22.8838C15.0376 22.8067 14.9088 22.6575 14.918 22.2374C14.9229 21.939 14.9454 21.6406 14.9542 21.3423C14.959 21.1663 15.0415 21.0658 15.2089 21.0315C15.5016 20.9713 15.7944 20.9047 16.0925 20.8525C16.273 20.8207 16.3716 20.7381 16.4204 20.5467C16.4755 20.3309 16.5573 20.1233 16.6639 19.9286C16.7961 19.6899 16.7946 19.4979 16.6092 19.2821C16.4492 19.0971 16.3277 18.8774 16.192 18.6715C16.0837 18.5069 16.0783 18.3488 16.2262 18.2011C16.475 17.9525 16.7166 17.6954 16.9722 17.4552C17.1362 17.3005 17.3221 17.306 17.509 17.4348C17.7358 17.5954 17.9696 17.7466 18.1921 17.9132C18.3131 18.0042 18.415 18.0047 18.5497 17.9405C18.8215 17.8112 19.1079 17.7133 19.3792 17.5805C19.4717 17.5301 19.5415 17.4453 19.5744 17.3438C19.6568 17.0246 19.7086 16.6974 19.7793 16.3746C19.8178 16.1996 19.9291 16.1076 20.1116 16.1096C20.4687 16.1136 20.8259 16.1131 21.185 16.1166C21.3968 16.1166 21.5158 16.2404 21.5568 16.4423C21.6144 16.7257 21.671 17.0096 21.7125 17.2961C21.7359 17.4577 21.813 17.5392 21.9608 17.5944C22.2378 17.6895 22.509 17.8014 22.7728 17.9296C22.9372 18.0131 23.0489 17.9942 23.1899 17.8858C23.41 17.7167 23.6476 17.5715 23.8784 17.4174C24.0433 17.3075 24.2122 17.3179 24.3488 17.4522C24.621 17.7237 24.8884 17.9992 25.1363 18.2976C25.19 18.3612 25.1939 18.5298 25.1495 18.6078C24.9875 18.8938 24.8006 19.1658 24.6127 19.4358C24.5269 19.5591 24.523 19.6566 24.5903 19.7963C24.723 20.0703 24.8147 20.3642 24.9445 20.6416C24.9909 20.7382 25.0717 20.8131 25.1704 20.851C25.451 20.931 25.7408 20.9768 26.0268 21.0404C26.2527 21.0902 26.3834 21.2259 26.3825 21.4736C26.3825 21.7958 26.3825 22.12 26.3825 22.4407C26.3859 22.7152 26.2361 22.8445 25.9921 22.8883C25.7203 22.938 25.4442 22.9743 25.1797 23.0509C25.0666 23.0953 24.9733 23.1801 24.9172 23.2896C24.7918 23.5297 24.7098 23.7938 24.5874 24.0355C24.4995 24.209 24.4864 24.3393 24.6205 24.5024C24.7918 24.7107 24.9289 24.9499 25.0777 25.1747C25.2002 25.3612 25.1714 25.5407 25.0265 25.6953C24.8021 25.9345 24.5722 26.1692 24.3361 26.396C24.1687 26.5566 23.9784 26.5794 23.7818 26.4392C23.5554 26.2776 23.3358 26.1055 23.0987 25.9608C23.0047 25.909 22.8948 25.8962 22.7918 25.925C22.4762 26.0322 22.1667 26.157 21.8647 26.299C21.7827 26.3378 21.7076 26.4546 21.6842 26.5476C21.6173 26.8201 21.5793 27.0996 21.5276 27.3761C21.4851 27.6033 21.3485 27.7241 21.1216 27.7281C20.7883 27.7331 20.4551 27.7346 20.1223 27.7281C19.8979 27.7246 19.7578 27.6078 19.7183 27.3766C19.6695 27.0991 19.6168 26.8231 19.5807 26.5441C19.5617 26.395 19.5056 26.3124 19.3592 26.2617C19.0826 26.1654 18.8111 26.0545 18.5458 25.9295C18.49 25.8972 18.4259 25.8826 18.3619 25.8878C18.2979 25.8929 18.2369 25.9175 18.1867 25.9584C17.9362 26.1431 17.6755 26.3131 17.406 26.4676C17.3123 26.5173 17.1225 26.5237 17.0542 26.4611C16.741 26.1767 16.4536 25.8644 16.1623 25.5541C16.1271 25.5198 16.1271 25.4487 16.1027 25.382ZM20.6708 24.0618C21.8052 24.0593 22.7689 23.0747 22.7689 21.9196C22.7689 20.7456 21.8096 19.7525 20.6708 19.7431C19.5485 19.7336 18.56 20.7486 18.5604 21.9092C18.559 23.0832 19.5226 24.0643 20.6708 24.0618Z" fill="#0461CC"/>
</svg>
